<svg xmlns="http://www.w3.org/2000/svg" viewBox="0 0 794 1081" fill="currentColor" role="img" aria-label="Otter in a turtleneck talking on a phone" xmlns:c2pa="http://c2pa.org/manifest"><metadata><c2pa:manifest>AAAWgmp1bWIAAAAeanVtZGMycGEAEQAQgAAAqgA4m3EDYzJwYQAAABZcanVtYgAAAEdqdW1kYzJtYQARABCAAACqADibcQN1cm46YzJwYTpiNWI5NmM4Yy0wOGM3LTRkNjYtYjQzNy01ZTNlZjQ5Zjg5ZDEAAAADl2p1bWIAAAApanVtZGMyYXMAEQAQgAAAqgA4m3EDYzJwYS5hc3NlcnRpb25zAAAAALxqdW1iAAAARGp1bWRjYm9yABEAEIAAAKoAOJtxE2MycGEuaW5ncmVkaWVudC52MwAAAAAYYzJzaPZ9VjqGLEYmuPObOQPHow8AAABwY2JvcqNpZGM6Zm9ybWF0bWltYWdlL3N2Zyt4bWxqaW5zdGFuY2VJRHgseG1wOmlpZDowZTAxZjY5My1iOWVhLTRhYmMtOTBjZC0wZTE3MzYyOGIxODhscmVsYXRpb25zaGlwaHBhcmVudE9mAAAB4mp1bWIAAABBanVtZGNib3IAEQAQgAAAqgA4m3ETYzJwYS5hY3Rpb25zLnYyAAAAABhjMnNoUQNZKaLdqYeKp1nI1GowmQAAAZljYm9yomdhY3Rpb25zgqJmYWN0aW9ua2MycGEub3BlbmVkanBhcmFtZXRlcnOha2luZ3JlZGllbnRzgaJjdXJseC1zZWxmI2p1bWJmPWMycGEuYXNzZXJ0aW9ucy9jMnBhLmluZ3JlZGllbnQudjNkaGFzaFgghDpBnyLTYdHEe0MZixrNrxZTySfgzJvSwVHiig6v0QGkZmFjdGlvbngdY29tLmFudGhyb3BpYy5jbGF1ZGUucHJvdmlkZWRqcGFyYW1ldGVyc6F4H2NvbS5hbnRocm9waWMub3JpZ2luLWNvbmZpZGVuY2VndW5rbm93bmtkZXNjcmlwdGlvbnhmQ2xhdWRlIHByb3ZpZGVkIHRoaXMgZmlsZSBhdCB0aGUgcmVxdWVzdCBvZiBhIHVzZXIgYW5kIG1heSBoYXZlIGNyZWF0ZWQgb3IgbW9kaWZpZWQgdGhlIGZpbGUgY29udGVudHMubXNvZnR3YXJlQWdlbnShZG5hbWVmQ2xhdWRlcmFsbEFjdGlvbnNJbmNsdWRlZPUAAADIanVtYgAAAEBqdW1kY2JvcgARABCAAACqADibcRNjMnBhLmhhc2guZGF0YQAAAAAYYzJzaGAJYc9OlRC6wlUvvkXyq/MAAACAY2JvcqVjYWxnZnNoYTI1NmNwYWRNAAAAAAAAAAAAAAAAAGRoYXNoWCAV8B327KJ0uHtus+truKHq0/P550FTqKVRblXIQCwEuGRuYW1lbmp1bWJmIG1hbmlmZXN0amV4Y2x1c2lvbnOBomVzdGFydBjTZmxlbmd0aBkeBAAAAj5qdW1iAAAAJ2p1bWRjMmNsABEAEIAAAKoAOJtxA2MycGEuY2xhaW0udjIAAAACD2Nib3KlY2FsZ2ZzaGEyNTZpc2lnbmF0dXJleE1zZWxmI2p1bWJmPS9jMnBhL3VybjpjMnBhOmI1Yjk2YzhjLTA4YzctNGQ2Ni1iNDM3LTVlM2VmNDlmODlkMS9jMnBhLnNpZ25hdHVyZWppbnN0YW5jZUlEeCx4bXA6aWlkOjk3Y2RkMzk0LWM4NmMtNGU2Yi05NmQ3LWIzZjliZDk5ZGI0MnJjcmVhdGVkX2Fzc2VydGlvbnODomN1cmx4LXNlbGYjanVtYmY9YzJwYS5hc3NlcnRpb25zL2MycGEuaW5ncmVkaWVudC52M2RoYXNoWCCEOkGfItNh0cR7QxmLGs2vFlPJJ+DMm9LBUeKKDq/RAaJjdXJseCpzZWxmI2p1bWJmPWMycGEuYXNzZXJ0aW9ucy9jMnBhLmFjdGlvbnMudjJkaGFzaFgg0i1P2amTtSKoqxW5StAIA1qfkPk0NFNOmI1JGvWcuriiY3VybHgpc2VsZiNqdW1iZj1jMnBhLmFzc2VydGlvbnMvYzJwYS5oYXNoLmRhdGFkaGFzaFgg3VT/3wm4CNRFMO4jwKIhlX1ZtT6XZtmbGCoTl/sqoOJ0Y2xhaW1fZ2VuZXJhdG9yX2luZm+jZG5hbWVvQW50aHJvcGljIEZpbGVzZ3ZlcnNpb25lMS4wLjBrc3BlY1ZlcnNpb25lMi40LjAAABA4anVtYgAAAChqdW1kYzJjcwARABCAAACqADibcQNjMnBhLnNpZ25hdHVyZQAAABAIY2JvctKEWQISogEmGCFZAgowggIGMIIBjaADAgECAhRA5aAK7sI50L64g/oGQgU9Z1UTADAKBggqhkjOPQQDAzBJMRcwFQYDVQQKEw5BbnRocm9waWMsIFBCQzEuMCwGA1UEAxMlQW50aHJvcGljIENvbnRlbnQgQ3JlZGVudGlhbHMgUm9vdCBDQTAeFw0yNjA4MDcxODQzNTZaFw0yODA4MDYxOTQzNTZaMEQxFzAVBgNVBAoTDkFudGhyb3BpYywgUEJDMSkwJwYDVQQDEyBBbnRocm9waWMgQ2xhdWRlIENvbnRlbnQgU2lnbmluZzBZMBMGByqGSM49AgEGCCqGSM49AwEHA0IABJh6CmvLUBgFFNU0vUKlOVtE6djd17L5SuwX0LemFisBM3dkd/3cyjxFA3Qo5S46fX0/ihY0VZ7mfb9KF703t5OjWDBWMA4GA1UdDwEB/wQEAwIHgDAVBgNVHSUEDjAMBgorBgEEAYPoXgIBMAwGA1UdEwEB/wQCMAAwHwYDVR0jBBgwFoAUzlHiBIFOZFsj+OPEz5o+nMHXXMIwCgYIKoZIzj0EAwMDZwAwZAIwMXMdFJ4BetLLVY7ORuE9noqbbAZOZn/aArXyTwFAZfKrPzxF2vPoJNf1+UCdg1XGAjBwX1zd9WGqYkqmL5SFqw1QySjr1zJfpJM9+1rdDwSPLMOPOjKuiXjoU/pUUeG9RwmhY3BhZFkNngAAAAAAAAAAAAAAAAAAAAAAAAAAAAAAAAAAAAAAAAAAAAAAAAAAAAAAAAAAAAAAAAAAAAAAAAAAAAAAAAAAAAAAAAAAAAAAAAAAAAAAAAAAAAAAAAAAAAAAAAAAAAAAAAAAAAAAAAAAAAAAAAAAAAAAAAAAAAAAAAAAAAAAAAAAAAAAAAAAAAAAAAAAAAAAAAAAAAAAAAAAAAAAAAAAAAAAAAAAAAAAAAAAAAAAAAAAAAAAAAAAAAAAAAAAAAAAAAAAAAAAAAAAAAAAAAAAAAAAAAAAAAAAAAAAAAAAAAAAAAAAAAAAAAAAAAAAAAAAAAAAAAAAAAAAAAAAAAAAAAAAAAAAAAAAAAAAAAAAAAAAAAAAAAAAAAAAAAAAAAAAAAAAAAAAAAAAAAAAAAAAAAAAAAAAAAAAAAAAAAAAAAAAAAAAAAAAAAAAAAAAAAAAAAAAAAAAAAAAAAAAAAAAAAAAAAAAAAAAAAAAAAAAAAAAAAAAAAAAAAAAAAAAAAAAAAAAAAAAAAAAAAAAAAAAAAAAAAAAAAAAAAAAAAAAAAAAAAAAAAAAAAAAAAAAAAAAAAAAAAAAAAAAAAAAAAAAAAAAAAAAAAAAAAAAAAAAAAAAAAAAAAAAAAAAAAAAAAAAAAAAAAAAAAAAAAAAAAAAAAAAAAAAAAAAAAAAAAAAAAAAAAAAAAAAAAAAAAAAAAAAAAAAAAAAAAAAAAAAAAAAAAAAAAAAAAAAAAAAAAAAAAAAAAAAAAAAAAAAAAAAAAAAAAAAAAAAAAAAAAAAAAAAAAAAAAAAAAAAAAAAAAAAAAAAAAAAAAAAAAAAAAAAAAAAAAAAAAAAAAAAAAAAAAAAAAAAAAAAAAAAAAAAAAAAAAAAAAAAAAAAAAAAAAAAAAAAAAAAAAAAAAAAAAAAAAAAAAAAAAAAAAAAAAAAAAAAAAAAAAAAAAAAAAAAAAAAAAAAAAAAAAAAAAAAAAAAAAAAAAAAAAAAAAAAAAAAAAAAAAAAAAAAAAAAAAAAAAAAAAAAAAAAAAAAAAAAAAAAAAAAAAAAAAAAAAAAAAAAAAAAAAAAAAAAAAAAAAAAAAAAAAAAAAAAAAAAAAAAAAAAAAAAAAAAAAAAAAAAAAAAAAAAAAAAAAAAAAAAAAAAAAAAAAAAAAAAAAAAAAAAAAAAAAAAAAAAAAAAAAAAAAAAAAAAAAAAAAAAAAAAAAAAAAAAAAAAAAAAAAAAAAAAAAAAAAAAAAAAAAAAAAAAAAAAAAAAAAAAAAAAAAAAAAAAAAAAAAAAAAAAAAAAAAAAAAAAAAAAAAAAAAAAAAAAAAAAAAAAAAAAAAAAAAAAAAAAAAAAAAAAAAAAAAAAAAAAAAAAAAAAAAAAAAAAAAAAAAAAAAAAAAAAAAAAAAAAAAAAAAAAAAAAAAAAAAAAAAAAAAAAAAAAAAAAAAAAAAAAAAAAAAAAAAAAAAAAAAAAAAAAAAAAAAAAAAAAAAAAAAAAAAAAAAAAAAAAAAAAAAAAAAAAAAAAAAAAAAAAAAAAAAAAAAAAAAAAAAAAAAAAAAAAAAAAAAAAAAAAAAAAAAAAAAAAAAAAAAAAAAAAAAAAAAAAAAAAAAAAAAAAAAAAAAAAAAAAAAAAAAAAAAAAAAAAAAAAAAAAAAAAAAAAAAAAAAAAAAAAAAAAAAAAAAAAAAAAAAAAAAAAAAAAAAAAAAAAAAAAAAAAAAAAAAAAAAAAAAAAAAAAAAAAAAAAAAAAAAAAAAAAAAAAAAAAAAAAAAAAAAAAAAAAAAAAAAAAAAAAAAAAAAAAAAAAAAAAAAAAAAAAAAAAAAAAAAAAAAAAAAAAAAAAAAAAAAAAAAAAAAAAAAAAAAAAAAAAAAAAAAAAAAAAAAAAAAAAAAAAAAAAAAAAAAAAAAAAAAAAAAAAAAAAAAAAAAAAAAAAAAAAAAAAAAAAAAAAAAAAAAAAAAAAAAAAAAAAAAAAAAAAAAAAAAAAAAAAAAAAAAAAAAAAAAAAAAAAAAAAAAAAAAAAAAAAAAAAAAAAAAAAAAAAAAAAAAAAAAAAAAAAAAAAAAAAAAAAAAAAAAAAAAAAAAAAAAAAAAAAAAAAAAAAAAAAAAAAAAAAAAAAAAAAAAAAAAAAAAAAAAAAAAAAAAAAAAAAAAAAAAAAAAAAAAAAAAAAAAAAAAAAAAAAAAAAAAAAAAAAAAAAAAAAAAAAAAAAAAAAAAAAAAAAAAAAAAAAAAAAAAAAAAAAAAAAAAAAAAAAAAAAAAAAAAAAAAAAAAAAAAAAAAAAAAAAAAAAAAAAAAAAAAAAAAAAAAAAAAAAAAAAAAAAAAAAAAAAAAAAAAAAAAAAAAAAAAAAAAAAAAAAAAAAAAAAAAAAAAAAAAAAAAAAAAAAAAAAAAAAAAAAAAAAAAAAAAAAAAAAAAAAAAAAAAAAAAAAAAAAAAAAAAAAAAAAAAAAAAAAAAAAAAAAAAAAAAAAAAAAAAAAAAAAAAAAAAAAAAAAAAAAAAAAAAAAAAAAAAAAAAAAAAAAAAAAAAAAAAAAAAAAAAAAAAAAAAAAAAAAAAAAAAAAAAAAAAAAAAAAAAAAAAAAAAAAAAAAAAAAAAAAAAAAAAAAAAAAAAAAAAAAAAAAAAAAAAAAAAAAAAAAAAAAAAAAAAAAAAAAAAAAAAAAAAAAAAAAAAAAAAAAAAAAAAAAAAAAAAAAAAAAAAAAAAAAAAAAAAAAAAAAAAAAAAAAAAAAAAAAAAAAAAAAAAAAAAAAAAAAAAAAAAAAAAAAAAAAAAAAAAAAAAAAAAAAAAAAAAAAAAAAAAAAAAAAAAAAAAAAAAAAAAAAAAAAAAAAAAAAAAAAAAAAAAAAAAAAAAAAAAAAAAAAAAAAAAAAAAAAAAAAAAAAAAAAAAAAAAAAAAAAAAAAAAAAAAAAAAAAAAAAAAAAAAAAAAAAAAAAAAAAAAAAAAAAAAAAAAAAAAAAAAAAAAAAAAAAAAAAAAAAAAAAAAAAAAAAAAAAAAAAAAAAAAAAAAAAAAAAAAAAAAAAAAAAAAAAAAAAAAAAAAAAAAAAAAAAAAAAAAAAAAAAAAAAAAAAAAAAAAAAAAAAAAAAAAAAAAAAAAAAAAAAAAAAAAAAAAAAAAAAAAAAAAAAAAAAAAAAAAAAAAAAAAAAAAAAAAAAAAAAAAAAAAAAAAAAAAAAAAAAAAAAAAAAAAAAAAAAAAAAAAAAAAAAAAAAAAAAAAAAAAAAAAAAAAAAAAAAAAAAAAAAAAAAAAAAAAAAAAAAAAAAAAAAAAAAAAAAAAAAAAAAAAAAAAAAAAAAAAAAAAAAAAAAAAAAAAAAAAAAAAAAAAAAAAAAAAAAAAAAAAAAAAAAAAAAAAAAAAAAAAAAAAAAAAAAAAAAAAAAAAAAAAAAAAAAAAAAAAAAAAAAAAAAAAAAAAAAAAAAAAAAAAAAAAAAAAAAAAAAAAAAAAAAAAAAAAAAAAAAAAAAAAAAAAAAAAAAAAAAAAAAAAAAAAAAAAAAAAAAAAAAAAAAAAAAAAAAAAAAAAAAAAAAAAAAAAAAAAAAAAAAAAAAAAAAAAAAAAAAAAAAAAAAAAAAAAAAAAAAAAAAAAAAAAAAAAAAAAAAAAAAAAAAAAAAAAAAAAAAAAAAAAAAAAAAAAAAAAAAAAAAAAAAAAAAAAAAAAAAAAAAAAAAAAAAAAAAAAAAAAAAAAAAAAAAAAAAAAAAAAAAAAAAAAAAAAAAAAAAAAAAAAAAAAAAAAAAAAAAAAAAAAAAAAAAAAAAAAAAAAAAAAAAAAAAAAAAAAAAAAAAAAAAAAAAAAAAAAAAAAAAAAAAAAAAAAAAAAAAAAAAAAAAAAAAAAAAAAAAAAAAAAAAAAAAAAAAAAAAAAAAAAAAAAAAAAAAAAAAAAAAAAAAAAAAAAAAAAAAAAAAAAAAAAAAAAAAAAAAAAAAAAAAAAAAAAAAAAAAAAAAAAAAAAAAAAAAAAAAAAAAAAAAAAAAAAAAAAAAAAAAAAAAAAAAAAAAAAAAAAAAAAAAAAAAAAAAAAAAAAAAAAAAAAAAAAAAAAAAAAAAAAAAAAAAAAAAAAAAAAAAAAAAAAAAAAAAAAAAAAAAAAAAAAAAAAAAAAAAAAAAAAAAAAAAAAAAAAAAAAAAAAAAAAAAAAAAAAAAAAAAAAAAAAAAAAAAAAAAAAAAAAAAAAAAAAAAAAAAAAAAAAAAAAAAAAAAAAAAAAAAAAAAAAAAAAAAAAAAAAAAAAAAAAAAAAAAAAAAAAAAAAAAAAAAAAAAAAAAAAAAAAAAAAAAAAAAAAAAAAAAAAAAAAAAAAAAAAAAAAAAAAAAAAAAAAAAAAAAAAAAAAAAAAAAAAAAAAAAAAAAAAAAAAAAAAAAAAAAAAAAAAAAAAAAAAAAAAAAAAAAAAAAAAAAAAAAAAAAAAAAAAAAAAAAAAAAAAAAAAAAAAAAAAAAAAAAAAAAAAAAAAAAAAAAAAAAAAAAAAAAAAAAAAAAAAAAAAAAAAAAAAAAAAAAAAAAAAAAAAAAAAAAAAAAAAAAAAAAAAAAAAAAAAAAAAAAAAAAAAAAAAAAAAAAAAAAAAAAAAAAAAAAAAAAAAAAAAAAAAAAAAAAAAAAAAAAAAAAAAAAAAAAAAAAAAAAAAAAAAAAAAAAAAAAAAAAAAAAAAAAAAAAAAAAAAAAAAAAAAAAAPZYQBMBK4Caf+WT0BYLObuMKxDPpkoKPrhIs6ef+KrDEcXoW+2uxIrELesYla2D1AkY/YG95zirc2vUS1PfrnSlvfE=</c2pa:manifest></metadata>
<title>Otter on the phone</title><path d="M374 125.9c-1.3.2-5 .4-8.4.6A53 53 0 0 0 354 128l-4.5.9-4.9 1.1-8.3 2.1c-1 .4-2.3.7-2.8.8q-1 0-2.3.6a26 26 0 0 0-7.6 2.8L320 138l-1.5.5-3.4 1.3c-1.2.5-2.5 1-2.8 1s-1 .3-1.6.7l-1.4.8-1.3.6-2 1.1q-1 .4-1.7 1.1l-2 1.4c-1.2.5-2.1 1.6-3.6 4.3-.7 1.2-.8 1.4-.8 4.5 0 1.7 0 3.2.2 3.4.4.3 5 .1 6.1-.3q1-.4 2.3-.4c.6 0 2-.3 3-.6 1-.4 2.1-.7 2.5-.7q.6 0 1-.3.6-.7 4-1 1.2-.2 2-.8.7-.5 1.9-.9 1.2-.2 2.4-.8l1.8-.8q.6-.1 1.4-.7t2.1-1q1.4-.1 2.5-.8l2.4-.9 3.8-1.3 3.8-1.2 3.3-.8c2.2-.8 6.1-1.7 7.2-1.7.4 0 1.6-.2 2.7-.6 2.4-.8 5.3-1.4 5.8-1.2l1.8-.3c.8-.2 2.3-.3 3.2-.3q1.7 0 2.5-.3t1.7-.1c.5 0 1.8 0 3-.3s4.2-.5 6.8-.6l6.9-.6c2.7-.3 20.2-.3 22.6 0l9.8 1.5 3.9.7 1.8.4c1.1 0 3.4.7 4 1.2q.4.5 1.6.3 1.2 0 2.7.5l1.9.5a8 8 0 0 1 3.2 1.6q.6.6 1.3.8.6.1 1 .5l1.2.6q2 .7 8 6l1.8 1.4c.4.4 2 2.5 2 2.8 0 .4 1.6 1.7 2.2 2q.7 0 .9.3l1.5 1c1.3.6 3.4 2.7 3.4 3.3q0 .4.6.6l1 1q.3.8 1 1t1.6.5c1 .5 5.1.5 6.5 0l1.6-.4q.5 0 1.4-.6 1-.6 2.6-.9l3-.6c6.7-1.8 8.4-1.8 9.5.2q1.2 1.9.1 2c-.7 0-1 2.1-.3 2.7.4.3.4.2.8-1.3q.5-1.6 1.2-.1l1.3 2.6q2 3.5 1.3 4.5l-.2 1c0 1.2-2.7 4-4 4q-.7 0-1.1.5-.6.4-1.7.6t-1.2.5c0 .2-.9 1-1.9 1.9s-2 1.8-2.1 2.1l-1 1.6c-.5.5-1.5 2-2.2 3-.6 1.2-1.5 2.6-2 3.2l-1.1 2c-2 2.8-4.2 6.2-5.4 8.3a24 24 0 0 1-3.6 5.6l-.6 1.2q-.6.8-.6 1.4t-.4 1-.5 1-.7 1q-.3.3-.4.8 0 .6-.7 1.6a108 108 0 0 0-5.7 11.4l-.4.7a111 111 0 0 1-7.2 14 14 14 0 0 1-1.7 3.7q-.3.1-.3.7c0 .7-.6 2-3 7l-2.6 5.6q-.6.9-.7 1.3t-.5 1.3l-.9 1.8q-.3 1-.8 1.6l-1 2.2q-.6 1.4-1.1 2a68 68 0 0 1-5.8 12.1l-2 3.7-.8 2-1.5 2.6c-1.1 2.3-1.6 2.6-4.2 3-1 .1-2.8.6-4 1a90 90 0 0 1-8.5 2.4l-4.5 1.2-1.8.5-2 .5-3.1.8-3 .7c-.7.1-2 .4-3 .8a29 29 0 0 1-6.7 1.3l-6 1a82 82 0 0 1-12 1.2q-1.8 0-8.7 1a121 121 0 0 1-23.8-.4l-2.3-.4c-.7-.2-2.1-.4-3-.4-2 0-5.6-.7-9.9-1.8l-3.5-.9c-3.6-.9-3.6-1-3.6-6.6 0-1.6 0-3.5-.2-4.1a26 26 0 0 1-.9-5.2q.4-.4 1.9-1c1.7-.7 2-1 3.3-2.9a8 8 0 0 0 1.6-4.7c.1-2.1.1-2.1-1.2-3.1l-2.7-1.5c-1.5-.4-2-.5-8-.4-2 0-3.8-.1-4-.3l-1.5-.3c-1.1-.2-1.7-.6-2.8-2q-.8-1-1.3-1.3a80 80 0 0 1-6.5-6.3c-1.6-1.7-1.5-1.7 4.6-4.5l2-.8q.5 0 1-.3.8-.4 6.4-1.2c2-.3 4.8.3 7 1.5l2 1 2 1.1a43 43 0 0 0 8 3.3q7.5 3.9 19 1.5l2.1-.2c1.6.1 4-1.8 4-3.2 0-.9-.3-1.2-3-3.9a31 31 0 0 0-5.7-4.8l-4.1-2.7-1.3-.6c-1.7-1.2-4.4-2-7-2.4a53 53 0 0 0-8.7-1.2c-4.5-.4-4.9-.5-7.2-2.2-1.8-1.4-2.2-2.3-2.4-6-.3-4.3 0-5.2 1.4-5.9q1.1-.6 2.2-1.7l3.3-3.5a22 22 0 0 0 3.5-4.3q.4-.2.7-.9l1-.8q.5-.1.7-1 .4-.9 1.6-2.3 1.3-1.2 1.4-1.7l.7-.9q.6-.6 1.1-2.4c.3-1 .7-2 .9-2 1.4-1.3-1.2-7.3-3.1-7.3q-.5 0-1-.6c-.6-.6-.8-.7-3.5-.6q-3 0-4.8-.4c-2.2-.4-7.5-.6-13-.3-3.2.2-4 .1-6.3-.4a52 52 0 0 0-18.6-.2c-1.5 0-4 3.9-3.8 5.8a17 17 0 0 0 2.7 5.4q.6.8.7 1.2l1.4 2q1.3 1.4 1.4 2 0 .3 1 1.1l2 2.2q1.6 1.8 3.7 2.8l1.3.6 1.5.5 1.8.7 2 .4c1.1 0 3.8.8 5.3 1.6l1.6.7c1.3 0 2 3.8 1.6 8.7-.3 3.6-.7 4.8-2 5.6l-1.5 1c-.4.3-1.4.8-2.2 1a36 36 0 0 0-5.6 2.3 18 18 0 0 0-5.6 3.5 29 29 0 0 0-4.4 5.2l-.6 1.3a7 7 0 0 0-1.5 4.3c-.2 1.6-.1 2.2.2 3l.4 1.2c0 1 2.4 4.1 5.7 7.6 3 3.2 2.8 3 5.4 5.1 3 2.5 3.2 2.8 3.8 4.8l.6 2.2c.4.8 1 3 1.1 4.7a27 27 0 0 0 2 7.5q.9 2-1 .8-.6-.3-1.6-.4-1 0-1.6-.6a2 2 0 0 0-1.5-.6l-2.1-.4c-1.2-.5-4.6-1.3-5.4-1.3s-3.3 1.8-5.2 3.8a28 28 0 0 0-6 8q-.3.9-.8 1.4-.6.8-1 2.2l-.8 2.2a44 44 0 0 0-.3 12.6l.3 4.3c0 2 .8 7.8 2 13a84 84 0 0 1 2.3 22.6c.1 6 .3 8.2 1 8.9l.8 1.4q.6 1 1.1 1.4c.7.5 3 2.7 3 3l-.6.6-1 1.3-1 1.4q-.6.6-.8 1.3-.4.8-.8.8t-.6.6-1.5 1.9l-1.3 1.5q0 .3-.7 1.1l-1.4 2-1.4 2.3-1.1 1.6-1.2 1.7q-.8 1-1.4 2.2l-.9 1.3c-.2 0-.9 1.2-1.7 2.5a12 12 0 0 1-2.2 3.2q0 .3-.4.7t-1.3 2a32 32 0 0 1-3 4.8q-.6.5-1.4 2.2c-1 2.1-3 5-3.8 5.6q-.5.4-.6 1t-.2.7l-1.2 2-1.3 2-.9 1.3c-.3.7-1 2-1.7 2.8l-1.2 1.8q0 .3-.8 1.3c-.5.6-1.2 1.8-1.6 2.7a36 36 0 0 1-2.8 4.9l-1.9 3.4-1.4 2.4q-1.9 3.7-3 4.7l-.6 1.3q-.2.8-.9 1.6l-.9 1.4c-.2 1-1.5 3.7-2 4.5l-1 1.9-1 2.4a19 19 0 0 0-1.9 4.2l-3.5 10a10 10 0 0 1-1 2.7q-.7.8-.7 1.2t-.3.6-.6 1.3-.8 1.1-.5.5c0 .4-.9 2.3-1.9 4.1l-1.5 3.4-1 2.2-.9 1.8c-.2.8-.8 2-1.2 2.4a3 3 0 0 0-.8 1.5q0 .7-.6 1.2t-.8 1.7c-.2.6-.8 2-1.3 2.8l-1.3 2.7-2.2 4.8q-.5.5-.8 3.8a95 95 0 0 0-1.3 11.9q-.2 2 .2 5.2c.5 3 .5 3.2 0 4.1q-.4 1-.3 1.4.1.5-.4 1.7c-.4.6-1 2.3-1.5 3.8l-2 5-1.4 3.6q-.3 1.1-1 1.8-1 .7-.6 1.4.3.7-.2 2.6c-1.2 5.6-1.3 7-.4 10.2.4 1.8 2 4.9 2.9 5.6s1.5 2.7 1.2 3.4a27 27 0 0 0-1 6.3c.1.4 0 1.6-.3 2.8l-.3 3.3-.4 6.8c-.4 6.2-.4 12.3.2 14.7.4 1.7 1 5.6 1.5 10.6a69 69 0 0 0 5.7 20.8l1.2 1.7a48 48 0 0 0 13.4 14c1.8.6 2.4 1.5 1 1.5q-.8 0-.5.3 1 .8 1.6 0c.2-.3.3-.3 1.7 0 5.3 1.1 7.3.9 11-1.6 1.7-1.1 1.7-1.1 3.3-.7a8 8 0 0 0 3.7 0c2.4-.3 2.4-.3 2.3 1q0 .6.2 1 .3 0 .3.9t.5 2 .4 1.8q-.1.5.1 1.2c.6 1 .7 3.6.2 6-.4 2.3-.7 17.5-.4 25.8.2 3.7 1.8 7.8 3.3 8.1q.9.3 1.1.8.3.8 1 1.2 2.4 1.7 1.3 4c-.7 1.5-.6 3.1.1 7.4a79 79 0 0 1 1.5 11.7l.4 2.3c0 1.1.4 5 .8 6.4l.5 2.9.4 3.8 1 6.3a59 59 0 0 0 3.8 14.7l1.2 3 1.3 3q.5.9.5 1.3l.6 1.2q.6.8.8 2 .2 1 .7 1.6c.3.3 1.3 2 2.2 3.9a67 67 0 0 0 4.4 8.3q.3.9.6 1.1.3.1.5 1l1.4 1.7q1 1 1 1.4 0 .5.5.8c.5.4 2 2.3 2.6 3.2.3.8 2.1 3.1 3 4l1.1 1.3 1.6 1.4q2.4 1.6-.9 2l-8.5 1.6a39 39 0 0 0-10 2.4l-2.8 1-3.3 1q-.8 0-2 .6c-.6.4-1.9.8-2.8 1l-3.2 1.2-3.3 1.3-5.4 2.4a71 71 0 0 1-8.4 3.4q-.1.3-1 .5-.8.1-1.5.7t-1 .7a22 22 0 0 0-9.8 6.5 28 28 0 0 0-4.7 5.7l-1.2 1.8q-.4.7-1 .7-.6-.2-.8 1.1-.4 1.2-.8 1.8c-2 2.3-2.7 5.2-1.4 6.9q.5.6.9 1.6.3.9 1 1l1.2.8 1.2.6q.4 0 1 .5t1 .5q.6 0 2.1.9l3.2 1.3q1.5.5 2.7 1.2a4 4 0 0 0 1.7.8q.7.1 1.7.8t1.8.7q1 0 1.4.4.6.4 1.1.4a105 105 0 0 0 11 2.4c4.8 1 5.5 1 18.4 1a140 140 0 0 0 37.5-3.4l2.7-.4c1.8-.4 4-.7 8.7-1.1a57 57 0 0 0 9.7-1.9 119 119 0 0 1 10.2-2c1.5-.5 5.1-1 8.2-1.5a77 77 0 0 0 15.6-3.5c9.9-3.3 11-3.8 12.6-5q.6-.6 1-.6c1 0 2.1-2 2.4-4.5.2-1.3.6-3.3 1-4.5l1.1-3.9.9-2.8.3-1.7.3-2 .7-3.5c.2-2.8.5-3.4 1.4-3.4a107 107 0 0 1 10.6 1.5l4.7.8c3.4.5 3.7.5 9.2 0h3.6q.8.3 1.4 0h2.8c2 0 2 0 2.4.8a14 14 0 0 0 2.4 3.6c1.2 1.3 2.5 3.4 2.4 3.8 0 .5-3.9 2.5-4.7 2.5q-.6 0-1.2.6a44 44 0 0 1-7.3 4.3l-1.7.8q-.7.1-1 .5t-1.4.6a60 60 0 0 0-9 4l-1.6.8c-.8.5-2.3 1.1-3.4 1.5q-2.5 1-5.1 2.9l-1.9 1.2c-1.8 1-7.1 5-8 6l-2.5 3.1-2.9 3.2c-1.6 1.6-2.3 3.4-2.2 6.6 0 1.3.1 2.7.3 3l.4 2.6c.1 2 .1 2.1.7 2.2q.6.2 1 1l.6.6 1 .7q.6.7 1.9 1.5l2.2 1.4c2.2 1.4 10 4.4 14.8 5.7a35 35 0 0 1 8 2.7l2.1.4c.7.3 2.1.5 3 .5 3.7.1 12.7 1.2 14.5 1.6q1.2.3 3 .2l4.6-.3a62 62 0 0 0 7.8-.9l4.8-.4q3.2 0 4.8-.6l4-1 3.6-1q3.6-1.8 4.9-1.7c.4 0 1.6-.4 2.7-.9l6.6-2.5 1.6-.6q.5 0 1.2-.5l1.2-.5q.6 0 1.6-.5a26 26 0 0 1 5.4-1.5c.4 0 2-.5 3.7-1l3.4-1 .9-.5 2-.9q1.3-.4 2.2-1a119 119 0 0 1 10.4-5.2l1.6-.9a6 6 0 0 0 2-1.3l2-1.4q.7-.3 1.5-1l1.5-1.1a94 94 0 0 0 8.8-6.9 12 12 0 0 0 4.3-4.8c.8-2.5.9-3 1.3-7.8s.6-6.5 1.3-10l.4-3.8c0-1.7.4-3.8.7-4h1l4.6 1.4q1.2.3 2 .8c2.6 1.4 5.6 2.3 10.1 3l4.4.8 3.5.5c1 0 2.6.3 3.7.5a124 124 0 0 0 12.4 1.5l4 .3a253 253 0 0 0 40 1.4 213 213 0 0 0 34.5-2.5l10-1.3c.4-.2 19.3-.4 31.6-.4a147 147 0 0 1 26.3 1.8l6.2.8 5.6.2c5.6 0 13.8 1 19 2.2a64 64 0 0 1 7.6.8c4.6.5 13.5.5 15.6.1l2-.5c.6 0 3.9-3.2 5-4.7q1.3-2-.2-4a3 3 0 0 1-.7-1.7q0-.8-.4-1l-.4-.5q0-.5-.5-1.4l-.5-1.4c0-.5-2-4.2-3.2-5.7l-1.5-2.3-1.4-2q-.9-.6-.9-1.4.1-.7-.5-.7t-1-.9-.8-.9-1-.9l-1.4-1.2-2-1.6-1.5-1.3-1.3-.8-2.3-1.8-2-1.9c-.8-.8-1-.9-1.8-.8-1 .2-1.6-.2-4.2-2.6-2-1.7-2.5-2-5.8-3q-1.2-.4-1.8-.8t-1.9-.8a27 27 0 0 1-5.4-2q-.5-.4-1.5-.8t-2.3-1.2l-1.4-.7-1.9-.9-2.1-.9q-.6 0-1.6-.4a55 55 0 0 0-8.6-2.3l-2.9-.9-2.8-1a43 43 0 0 0-8.4-2.1l-10.1-1.8c-2-.3-6.8-1.1-10.5-1.9a96 96 0 0 0-16.9-1.9 27 27 0 0 1-6.7-.8c-1 0-2.6-.3-3.7-.5s-3.6-.4-5.6-.5a59 59 0 0 1-11.1-1.4 49 49 0 0 1-9.1-1.5l-2.4-.4-2-.7q-1.6-.4-1-.8c.5-.1.4-.6 0-.6q-.4 0-.4.3c0 .4-2.7.3-4-.2-2.3-.8-3.6-1.3-5.5-1.8L590 768l-2.4-.9q-1.7-.8-2.3-.9t-1-.4c-.2-.3-1.2-.9-2-1.3l-2.3-1a27 27 0 0 0-6.8-2.8 2 2 0 0 1-1.2-.4q-.4-.5-1-.7t-.9-.8q-.4-.5-.9-.6-.7 0-5.3-4.3-1.4-1-.6-1.3 1-.8-.5-.7c-.9.1-1 .1-3.2-2.3l-3.6-3.9c-3-3-5-5.9-5-6.9q0-.5-.6-.9t-1.3-1.4l-1.2-1.7a3 3 0 0 1-.7-2q0-1.2-.3-2.6l-1.3-4.6c-2-3.8-2.1-4.8-2.2-18.8 0-12.5 0-13.3.4-14.7s.5-2.4.6-8l.2-15.4a99 99 0 0 0-.7-16.6c-.5-4-.4-11.4.3-19.1.9-10.3.7-30-.2-34.3-.7-2.7-.6-18.3 0-19.4.4-.5 1-6.5 1.1-10l.4-9c.6-14 0-35.1-1.5-45.6-.4-2.5-.2-3.1.8-3.3l1.1-.4 2.8-1a30 30 0 0 0 9.8-4.8l2-1.2q.7-.5 1.6-.5t1.8-.6 1.3-.7l1.6-1.3 2-1.8a44 44 0 0 0 4.2-5.2c.7-1.1 3.2-3.7 4-4q.5-.2.6-1l1.1-1.6c1.6-1.7 2-2.3 2.2-3 .2-.5.7-1.3 2.4-3.3l.7-1.1c.4-.9 2-3.1 3.2-4.4l.9-1.4q0-.5.9-.9 1.4-.6 1.3-1.7 0-.7.7-1.7l.8-1.1q0-.3 1-1.5c.5-.7 1-1.7 1-2.1q.4-1.6 1.7-4.8c.3-.6.7-2.2.9-3.6l.6-3.5q.5-1.6 1-12c.2-3.1.4-5.7.7-6.6l.5-4 .3-4.9a88 88 0 0 0-.6-18 22 22 0 0 0-1.8-9.3l-.7-2-.7-2.4c-.3-.6-.6-2-.7-3.1l-.6-3.4-2-7-1.1-3q-.5-.6-.7-1.6l-.6-1.8q-.5-.7-.5-1.5l-.2-1c-.4-.2-2-3.5-2.3-4.8q-.3-1.1-1-2.2l-.7-1.5-.5-1.3q-.5-.9-.5-1.5c0-.3-.5-1.5-1-2.6l-1-2.4-1-1.5-1.4-2q-.4-.8-.7-.8c-.8 0-3-3.6-2.9-4.6q.3-1.9-1.1-3.7a51 51 0 0 1-4.6-10.8 36 36 0 0 0-3.6-10.4l-1-2.4q-.4-1-1.2-1.9l-1-1.4q-.3-.5-.8-.7c-.4 0-1-1-1-1.5s1.2 0 1.7.5q.5.6.7.6c.1-.2-2.1-2.5-2.4-2.5q-.3 0-.3.4c0 .5-1 1-1.3.7q-.4-.3-1.6-.3-1.5.1-1.5-.6-.9-2-1-3.2l-2.3-5.5-.6-2-.6-1.8-.8-2-.9-2.3-.5-1.3q-.1-.7-.4-1c-.4-.2-.7-1.3-.5-1.7q.3-.3.1-.9-.2-.9-.4 0-.2.5-.4.5c-.2 0-2.6-3.8-3-4.9q-.4-.8-.7-1l-.8-1.3-1-1.6c-.8-.9-.2-2.5 2.7-7l1.6-2.9c.4-.9 1-2 1.4-2.4l1.2-2.2 1.1-1.8q.5-.4.5-1l.4-1a60 60 0 0 0 3.3-7.7l1.2-2.5 2.1-5.2 1.5-3.7 1-1.7 1-1.9q.3-1 .8-1.6t.7-1.8.6-1.8q.3-.4.4-1.4 0-1 .4-1.7c.3-.5.4-1.6.4-4.7 0-4-.2-4.7-1-5.3q-.5-.4-1-1.5c-.7-1.5-2.1-3.6-2.8-4.2q-.5-.5-.5-.8a32 32 0 0 0-8.6-7.4q-.7 0-2.8-1.8l-1.8-.9q-1-.3-1.7-.9l-2.3-1.3c-1.9-1-1.8-1-3.3-2l-4-2.3-1.6-1c-1.6-.9-2-1.1-5.4-3.3l-9-5.4q-1.6-.7-2-1.3-.3-.5-.6-.5l-1.3-.6-2.2-1.2c-1.4-.7-1.5-.9-.9-4.6.2-1.4.2-2-.1-3.4l-.4-2.8c0-2.8-2.6-8.9-4.6-11.2-.5-.4-1.2-1.5-1.8-2.2a52 52 0 0 0-11.9-11.7 29 29 0 0 0-12.3-4.1c-1.9 0-3.8-.3-4.3-.4q-.9-.1-2 .5-1 .6-1.7.7l-1.3.8c-1.4 1.2-4.1 3-4.5 2.8q-.4-.2-.8-.9c-.4-.8-3.4-3.9-4.8-4.9l-2.3-2c-2.3-2-3-2.5-3.9-2.7-.4 0-1.6-.7-2.5-1.4-2-1.5-3.4-2.4-5.5-3.6a10 10 0 0 0-4.2-1.7c-1.7-.4-4.4-1.7-4.7-2.2l-.8-.2q-.8 0-1.7-.5l-2.6-1-2.7-.9c-1.5-.5-5.4-1-8.1-1.2l-3.3-.4c-1-.3-4.4-.6-12.3-1l-5.5-.6c-1.3-.4-25.5-.5-28.4 0m120 69c0 .3-.8 1.1-1 1.1q-.3 0-.3-.4 0-.3-.4-.4l.4-.2c1.3-.3 1.3-.3 1.3 0m-2.7 1q-.1.5-.8 1-1.1.5-.5 1.4.4.6 1.1-.8c.3-.7 1.1-1 1.1-.4q0 .3-.4.7a6 6 0 0 0-1.6 2.8q0 .9-.5.7-.5-.1-.4.8t-1.3 3l-1.2 2.2-1.7 3.2-5 8.7-.9 1.4c0 .3-1.3 2.3-1.7 2.6q-.5.3-.5 1c0 .4-.5 1.8-1.2 3a155 155 0 0 0-6.1 12.6l-3.9 7-.6 1a43 43 0 0 1-3.8 7.7l-.8 1.5-.6 1.4c-.2.5-.5 1.3-.8 1.6l-.5 1c0 .4-.3 1.1-3.2 7.1l-3 6.4-1.3 2.4q-.8 1.7-1.3 2-.4.5-.4.9t-.6 1q-.5.6-.9 1.6l-1 2.6-1.6 4-1.9 4.4-1.1 2.5-1.1 2.5-.6 1.1-1 2.5c-.3.9-.6 1.9-.8 2.1l-1.3 3a60 60 0 0 1-3.6 7.4q-.2.9-.8 1.9l-.4 1.4q0 .5-.4 1-.4.7-.5 1.9c-.6 4.2-2 6.1-2.4 3-.2-2 0-5.1.4-6.4l1.4-5.2a45 45 0 0 1 6.6-14.4q.6-.6 1-1.7l.8-1.9q.5-.7.6-1.3t.6-1.6c.6-.9.8-1.1 1.5-2.9q.5-1 .9-1.3.3-.2.5-1l.9-1.8a21 21 0 0 0 2-3.7l1.4-3c.5-1 1-2.2 1-2.6l.5-1q.4-.1.4-.5a77 77 0 0 1 4.4-9.4l2.8-5.1 1-1.8q.6-1.7 1-2.1a107 107 0 0 0 6-13l.5-.8 3.2-6.6c3-6 3.7-7.1 4.2-6.4.2.4 1.1 0 1.2-.4.4-.8-.3-1-1-.4q-1 .7-.2-1l.4-1q.1-1 1-.6c.3.3.7 0 .3-.4q-.7-.7.2-1.5.5-.5.5-1.2c0-.3 1-2.4 2.1-4.7a93 93 0 0 0 3.8-8q.1-.7.5-1l.6-1.3c.1-.5 1-2.1 1.9-3.6l1.7-3c.2-.6 3-3.6 3.3-3.6l1-.6q1.2-1.2 1 0m18 1.3a31 31 0 0 1 5.8 3.7l1.9 1.4c5.3 3.1 6.1 3.8 5.2 4q-.6.2-.3.4t1 0q.9-.4 1.6.2.6.6 1.6 1c1 .5 4.2 2.6 4.9 3.2q.4.4 1.3.6l1.3.7q.3.4 1.3.8 1 .6 1.9 1.4t1.5 1 1 .7l.7.4 1 .8 2.5 1.6a19 19 0 0 1 4.3 2.6l1.5 1q4.5 2 4 9c-.2 3-.6 4-5 12.8l-1.3 2.6q-1 1.9-1.5 1.4-.3-.4 0 .5c.1 1.4-.8 2.4-1 1.2q-.3-.5-.7-.4c-.6.1-.7 1 0 1.5q1 .9-.3 2.4c-.7.9-.7.9-.9 0q-.2-1.4-.5-.4-.3.6-.2.8 1.4 2.3-1.9 8.2l-1.5 3-1.1 2.2-.4 1-.4.8q-.5.4-.8 1.1-.5 1.5-1.2.1l-1-1q-.7-.4-.9-.8t-1.1-.8l-1.7-1q-.7-.7-1.8-1.2l-2.5-1.5-3.7-2.3a34 34 0 0 0-12.6-4.2q-.7-.3-2 .1c-.5.3-1.4.4-1.8.4q-.6 0-1 .4l-1 .5a5 5 0 0 0-1.7 1.1q-1.5 1.7-1.6.6.1-.6-1 .4t.1.7q1.5-.1.3 1.1l-.3.6-.5 1.2q-.5.9-.5 1.5-.2 1.5-1.3 1c-1.1-.5-7-.4-9.2 0-3.7.8-7.6 3.5-8.8 6.1a4 4 0 0 1-1.4 1.6q-.7.5-.6.9l.1 5.3c0 4.7.1 5 .7 6.2 1.1 2.1 1 2.2-1.7 3q-7.6 2.4-7 12c.5 8.4 1.5 12.8 3.6 16l1 2q0 .6.9 2l1.4 3.3a32 32 0 0 0 2.5 5.5q.2.7 2.4 3.7a8 8 0 0 1 1.4 2.1l.9 2.3q.9 1.8.9 3 0 1 .2.8.4-.8 1 0 .9 1 .1 1.1c-.6 0-.7.5-.2 2.3.3 1.6.4 1.7.8 1.4q.5-.4-.1-1c-.9-1.4-.1-2.4 1-1.3.8.8.9 2.6 0 3.9-.2.5-.8 2.1-1.1 3.6s-.9 2.8-1.1 3c-.4.2-1.2 0-7.8-3.4l-5.1-2.4-3.5-2-3.3-1.6q-.9-.3-1.9-1t-1.4-.7-.6-.3l-1.5-.9c-.7-.3-1.5-.8-1.6-1q-.4-.5-.7-.6-.5 0-1-.4l-1.4-.8q-1.3-.8-.5-1 1 0-.8-1.3a9 9 0 0 0-3.2-1.8q-1.2-.4 0 .3c1.4.7 2.6 2.3 1.8 2.3a15 15 0 0 1-4.1-2.2q-.4-.3-1.6-.7a28 28 0 0 1-7.6-3.8q-.8-.3-2.2-1.2c-2.2-1.4-2.4-2.8-1-7.2l.9-2.5a65 65 0 0 1 3.7-8.2l1.1-2c.5-.6 1-1.6 1.3-2.1l1.9-3.5 1.7-3.5.7-1.6a39 39 0 0 0 2.9-5.8l.7-1 .6-1.2 1-2.1 3-6a94 94 0 0 0 3.7-8.2 29 29 0 0 0 2.7-5.7c.4-.5 2.8-5 3-5.8l1.5-2.5c.8-1 1.4-2.2 1.5-2.6l1.9-4.3 2.4-5c.7-1 2.7-4.5 4.9-8.8l1.8-3 .9-1.7c.2-.7.7-1.8 1.2-2.5l.8-1.6a76 76 0 0 1 3.8-8.4c0-.2.6-1.8 1.5-3.5l3-6.6.7-1 1.1-2 1.7-2.9 2.1-3.2q1.5-2 1.6-2.4l.7-.9q.6-.6 1.1-1.7 1-1.6 3.8-3.9c1.7-1.3 3.2-1.2 6.7.5m4.4 74.3a17 17 0 0 1 5.4 3.2q.8.7 1.2.8l.6.8q.4.6.7.7c.3 0 1 .8 3 3.6 1.6 2 3 3.6 3.3 3.6q.3 0 .3.3l2.2 2.4q5.1 5.4 6.5 10.1.4 1.4 1 2.4c.3.5.8 1.7 1 2.6.3.9.6 1.9.9 2.1l.6 1.1q.1.7.5 1c.3.5 1.3 3.5 1.5 4.7q.2.8.5 1.2l.7 2.2c.5 1.9 1.7 5.2 2.5 6.6.5 1.1.5 1.1-1.6 3l-2.5 2.4a12 12 0 0 1-3.4 3.1q-1 .5-1.3 1a31 31 0 0 1-12.5 8.9q-.4 0-1.2.7c-.4.4-1.4.9-2 1.1l-1.6.8-.8.4q-.5 0-2.3 1c-4.9 2.5-12.7 3.3-12.7 1.3 0-.4-1.4-2.8-2.6-4.2l-1.5-2-3.4-5.4c0-.2-.8-1.4-1.6-2.5l-1.6-2.7-.5-.6-.5-.7c-.5-1-2.5-4.2-3.4-5.3q-.6-.6-1-1.6t-1-1.5a2 2 0 0 1-.4-1.5q.1-1-.5-.7-.4.2-.7-.6l-2-4.5-.5-1.3c-.4-.7-.5-1.6-.5-4.1-.2-4-.4-4 4.6-1.6l1.8.7q.3 0 1 .6l1.5 1q.8.5 2 1.7c1.4 1.3 1.4 1.3.6 1.6q-1 .3-.4.5.5.1 1-.1 1-.7 2 .3c1.8 1.4 6.7 1.3 8.1-.2 1-.9 1.2-4 .4-5l-.4-1-.4-1.2q-.5-.8-.6-1.6t-.4-1q-.5 0-.6-.3c0-.9-3.5-4-5.8-5.2q-.7-.4-1.2-1.4t-.8-1.5q-.7-1.2 0-2.7.5-.6.2-1.3-.3-1-.6.1-.3.8-.6.4c-1-.7-3-5.4-2.7-6.1q.8-1.7 8.3.9c4 1.3 4.4 1.6 7.6 4.9l3.5 3.7c.7.7 2.4 1.9 3.4 2.4q.6.3 2.4.5 2.8.6 4.3-2.3c.5-1 .4-4-.2-4.9-.5-.8-1.9-3.4-2.1-4.2-.4-1.3-3-4.8-5-6.9-2-2-2.1-2.2-1.9-2.7.2-.3.2-1 .2-1.3-.3-1.3-.2-1.4 2-.7M295.6 314l-.1.4c-.3.2-.1 1 .2 1q.4 0 .4-.5c.4-1.2 6.1.5 6.1 1.8 0 .8-1.7 7.5-2.3 8.7l-.8 3.6-.6 4.7a154 154 0 0 0 1.2 31.3l.7 2.1.9 2.8c.7 1.8.7 1.8.1 1.6q-1.7-.5-3.6-.8l-1.6-.5-1-.4c-1.9-.4-2.4-3.5-2.6-13.5 0-4.7-.2-5.8-.8-8.6-.7-3.7-.7-3.3-1.2-7.4-.2-1.8-.7-4.3-1-5.6-.8-2.8-.8-2.6-.3-8.8.4-5 .5-5.3 1.7-7.9l2.2-4.4c.5-.2 2.1 0 2.3.4m120.1 3.5q.3.3 0 .8c-.5.9-.6 6.6-.2 8.6l1 2.1c.4.8.6 1.4.7 2.6q.1 1.8.5 1.3c.3-.3 1.6.7 1.6 1.4q0 .3.2.4.4.1 2 1.6 3 2.7 5.2 4.2c1 .6.9-.3 1 14.8a86 86 0 0 0 1.3 13.1q.3 2.4.7 2.8.9 1-1.7 1.3l-2 .5q-1.7.6-4.4 1l-2.1.5-3 .9c-2.3.7-6 1.1-6.4.7s-1-3.7-1.2-6.6l-.5-7.9c-.2-2.9-.4-8.6-.4-12.6l-.2-9.1-.5-4.1a44 44 0 0 0-3.7-12.8c-1.1-2.5-1-2.7 3-3.6 1.7-.3 6-1.4 7.4-1.8s1.4-.5 1.7-.1m-98.5 2.2 2.2.6c.9.3 5.1 1.1 10 1.9 2.3.4 2.5.7 1.7 2.7l-.9 3.5-.8 4a51 51 0 0 0-1.1 8.3 164 164 0 0 0 .2 19.7c.2 2.5.4 13.2.3 16.8-.1 2.6-.5 2.8-4.7 2.4-1.7-.1-4-.5-5-.8-2.4-.8-2.5-1-2.8-6.4a31 31 0 0 0-1.6-10.5l-2-9.9a68 68 0 0 1 .6-26 5 5 0 0 1 .4-2.8l.6-2c0-.7.8-1.8 1.4-1.8zm75.5.5c.5.7.6 3.2.5 13a683 683 0 0 0 .6 45.2q.9 1.5-2.5 1.5l-1.8.2c-1.1.3-7.1.8-11.4 1-1.8 0-3.8.2-4.4.4q-1.2.3-1.5 0c-.7-.6-1-7.4-.4-12.7l1-13 1.3-14.5a54 54 0 0 0-3.7-17.5c-.4-1 0-1.2 5.7-1.6a58 58 0 0 0 14.1-2c1.8-.3 2.2-.3 2.5 0m-32.1 3.7-.6 1.6-.7 1.9-.5 1.3q-.5 1-.5 1.7l-.4 1.7q-.4 1-.6 2.3l-.6 3.4c-1 5.3-1.6 29.9-.7 32.5.5 1.7.8 6.3.5 7.3q-.5.9 0 1.1.6.8-.1 2.6c-.4.9-.4.9-2.4.7q-2 0-2.9-.3l-2.3-.4c-.8 0-1.9-.3-2.2-.5q-.7-.3-1.4-.2l-.7-.1-.1-10c0-8.7-.1-10-.6-12a44 44 0 0 1 .3-21.7l.3-7.1V324h3.4c1.8.1 5 0 7.2-.2 3.7-.3 5.2-.3 5.6 0m195.7 11-.4.7c-.4.4-.5 1.5-.1 1.7l.6-.6c.4-.9.4-.9 1-.6q.4.1.4.8t.2.9q.4.3 1 1.8l1.2 2.7.8 1.8 1.2 2.1c.4.7 1 1.8 1 2.3l.6 1.6q.5 1.2-1 2.5-1.5 1.2-1.5.2c0-.5-1-3.6-1.6-4.8l-.5-1.5c0-.9-3-7.6-4.2-9.1q-1.4-1.6 0-2.2 1.4-.9 1.2-.3m-9.6 11.4 1 3.5c.1 1 .5 2.5.9 3.5l.7 2a14 14 0 0 0 1.8 4c.8.9.2 1.4-4 3.7l-1.6 1q-1.6 1.2-2-1l-.9-3.1-1-3.7c-.2-1-.7-2.4-1.1-3.3l-.9-2.5q-.2-.9-.5-1.1c-.5-.2-.4-1 .2-1.5s1.6-.5 1.8-.1l.5.2q.3 0-.1-.3-.8-.6.7-1.5l1.8-1.1c1.4-1 2-.8 2.7 1.3m-100.9 5.3q.5.5 1.1.6l1.6.8 2 1.1 1.2 1 .6.6q.4 0 2.1.8l4.4 2.3 3.1 1.7q1.5.7 0 1.1l-2.5 1a40 40 0 0 1-10.5 3.7c-.7 0-1.5.3-1.6.5q-.8.5-1-.3l-.5-1c-.7-1-1.4-5.3-1.7-10q-.2-6 1.8-3.9m80.8 3.3.4 2.6a28 28 0 0 0 1.5 6.6q.5 2.2 1.9 5.2 1.3 2.8.4 2.6-.5 0-.8.4c-.6.7-1.3.5-1-.3.2-.6.1-2.1-.2-2.1l-.9.3q-2.5 1.3-.4 2.2c1.3.4.6 1.3-1 1.3q-.9 0-1.5.3-1.5.9-2-.2l-1.1-4.8c-.2-1.2-.7-3-1.2-4.2-.8-1.9-2.5-7-2.5-7.4q0-.4.5-.8c.4-.3 1-.6 4.8-1.9l1.6-.7q1.1-.9 1.5.9m-21.2 4.2c1.2.2 1.2.2 1.5 3q.6 5.5 1.9 9.2c2.2 6.4 2.3 6.1-1 6.1-2.7 0-2.8 0-3.2-.6a65 65 0 0 1-4.6-17.3c-.2-.8 0-.8 2-.7zm63.1 7.8q0 .7.4 1.5l1.1 3.1 1.3 3.9c1.5 4 2 5.6 2 6.5q0 .7.5 1.8.4 1 .5 2t.3 1.7q.3.7.4 1.7c0 .6.3 1.7.6 2.4.4.7.8 2.2 1 3.4l.7 3.4.5 3.6c.3 3.2.9 7.4 1 7.7a78 78 0 0 1-.8 27.9 79 79 0 0 0-1.9 10.2l-.7 5c-.6 4.8-1.5 7.1-5.7 14.8a155 155 0 0 1-9.3 14.9 21 21 0 0 1-4.9 3.8l-.7-.3c-.5-.5-1 .1-.6.6s-1.5 2.4-2 1.8-1.8-.5-2.2 0l-.7.4q-.3 0-1.1.7-1 .7-1.7.9-1.6.3-1 .6c.1.3 3.6-1.3 4.4-2q.5-.6 1.2-.1 1 .3.2.7c-1.3 1.3-4 2.7-5 2.7q-1 0-1.3.4a7 7 0 0 1-2.4 1.2l-2.6 1q-.7.5-1.9.8t-2.2.7l-1.7.4-2.4.5c-1 .2-2.3.5-2.9.4l-3.2.2a8 8 0 0 1-3.6-.4l-3-.6c-1.4-.2-2.6-.6-5-1.6q-1-.5-2.2-.8l-4.9-1.1c-6.6-1.6-8-1.8-9.8-1.3l-2.1.4c-.7 0-2.7 1.5-3.5 2.5q-3 4-1.3 6.3l.8 1.4q.2.5.6.7c.2 0 1.1.8 1.9 1.7q1.4 1.6 1.8 1.6.3 0 1 .6t1.4.8q.8.1 2 .8l1.7.6.6.2a53 53 0 0 0 12.4 3.7c2 .4 4.2.9 5.6 1 1 .2 1 .3 1 1a343 343 0 0 1 1.5 20.5l.2 9.9.4 14.2c.3 6.7 0 14-.5 16.6-.3 1.5-.3 5.5 0 7.8l1.3 19.9c.5 7.7.3 21.5-.4 32.3l.1 6.9.5 7.5v11l-.2 13c0 5.2 0 5.2-.7 5.7l-1.3 1q-.7.5-1.9.8t-2.5 1l-4.1 1.6-4 1.4c-.6.3-2.2.7-3.5 1l-3.7.9-2 .4q-1.6 0-9.6 1.8l-9.5 2.2c-2 .5-7.5 1.5-11 2-1.1 0-4.2.5-6.7.8-5.1.7-5.8.8-9.3 1.1-6.9.7-8.4.8-12.4.8a197 197 0 0 1-33.6.8l-8-.3c-3.4 0-4.1 0-5.3-.5a18 18 0 0 0-4.7-.7 122 122 0 0 1-15.8-2l-10-1a50 50 0 0 1-6.7-1l-3.6-.7-7.1-1.2-4.3-1-2.9-.4-3.3-.4c-2.2-.4-3.2-.6-6.5-1l-3.4-.9-2-.5-1.9-.4a42 42 0 0 0-10.8-2.6c-3.5-.3-9.9-1.7-12.9-2.8a71 71 0 0 0-8.4-2.2 160 160 0 0 0-15-3.7l-2-.8-2.3-1-1-.7c-1.3 0-6.1-5.3-7.2-8a60 60 0 0 1-1.3-16.1q.3-2.5 0-4.3c-.6-3.7-.2-13.3.8-20.2a165 165 0 0 1 3.9-21.5 126 126 0 0 1 2.2-10.8l1-4c.6-2.6.8-3.4 1.5-7.6l1-5.5.5-3 .7-3.1A168 168 0 0 0 277 546l.5-2.9.5-4.4a36 36 0 0 1 1.1-6.3l.4-2.1.6-2.3 1.3-6.1.6-3.5a127 127 0 0 0 2-11.2l.8-5.7a189 189 0 0 0 2.6-16.4l1-6.5c.3-1.3.6-8.7.9-18 .1-5.2.1-5.6-.4-7-.3-.8-.5-1.8-.5-2.1q0-2-3.7-3c-1.2-.3-4.3.4-4.7 1.1l-.8 1.1a83 83 0 0 0-6.4 23.4q-.7 1.8-1.2 5.5l-.6 3.3-.5 3c0 .8-.7 3-1.3 5s-1 4-1 4.5a3 3 0 0 1-.4 1.5q-.3.5-.4 1.3 0 .9-.5 1.9t-.5 1.7-.4 1.5l-.9 3.3-.9 3.2-.7 2.3a79 79 0 0 1-1.9 7.9l-.7 3.3-1.3 5.3-1.2 4c-.5 1-1 3.1-1.3 4.7a87 87 0 0 1-1.9 9c-.1 1.3-.8 4.6-1.2 6.1-.2.7-.5 2.2-.6 3.4s-.3 2.4-.5 2.7l-.3 1.2c0 .4-.2 1.5-.5 2.4q-.7 2.6-2 1l-.8-.6-1.6-.9q-1-.8-1.5-.9c-.1 0-1-.4-1.8-1l-1.7-1q-.4 0-1.2-.8l-1.6-1c-.8-.2-2.7-1.6-2.9-2.2q-.1-.4-1-.7c-1.7-.7-2.3-2-.8-1.7q1 .3.3-.1l-.9-.8q-.5-.8-.8 0c-.5.5-1.8.3-2.8-.5l-1.7-.9c-.8-.3-2.2-1.5-2.2-2q-.1-.3-1.4-1.7a19 19 0 0 1-3.6-4.4 8 8 0 0 0-2.6-2.8c-1.5-1-1.7-1.8-1.7-4a15 15 0 0 1 1.2-6.4q.2-1 .8-1.4.6-.5.6-1.4t.5-1.5c.3-.3.8-1.5 1.1-2.5.8-2.5 2.3-6 2.9-6.5a56 56 0 0 0 5.7-13 59 59 0 0 1 2.8-7.1l1.7-5.6c.6-2 2.5-6.1 3.3-7.2a270 270 0 0 0 8.6-17.1l.8-1.6 1-1.7 1.1-1.9 1.1-1.7q.6-.6.8-1.3 0-.7.6-1.2l1-1.4 1-1.6a85 85 0 0 0 8.2-12.9c.2-.1.9-1.5 1.6-3l1.7-3 .2-.8.6-1.8 3.9-7.5 1-1.9 2.4-4c.9-1.3 1.6-2.6 1.6-2.8l.6-1c.6-.7 2.7-5 3-6.2q.2-.6 1-1.1.6-.5.7-.9t.9-1.4q.7-.9.8-1.3a58 58 0 0 1 5.5-10l.8-1.4.5-1.2c.7-1.8 1.8-2.6 2.1-1.5q.2.5.3.2t-.3-.8c-.8-.9 0-1.1 1-.4l1.2.7q.5 0 2.3 1c3.2 1.5 3.8 1.7 6.2 2 2.3.2 2.9.4 8.8 2.2 1.7.6 3.4 1 3.7 1q.6.1 1.8.8l2.4 1.1a62 62 0 0 0 22.6 4c1.8.1 3.6.4 4.5.7l2 .4 2.3.4 4.5.6 4.8.7c4.4.8 13 1 15.5.2 1.5-.4 2.7-.5 12.2-.5 6.1 0 11.2-.1 12.2-.3l4.5-.7 18-2.7a53 53 0 0 0 16-4 55 55 0 0 1 9.7-2.4c1.5 0 3.5-.4 5-1l6.8-2.6 1.4-.7 1-.5 1-.6q.6-.5 1.8-.7c.5-.1 2.8-1.1 5-2.3 4.5-2.2 6.6-3 8-3.3q.8 0 1.4-.6l1-.5c.3 0 5.1-1.8 6.2-2.4.8-.4.7-.5 1 1.1.4 1.8.4 3.5 0 4.1q-.3.5.2.8 1 .8-1.4 8.6a38 38 0 0 0-1.2 6.5q.1.6-2 2.7a29 29 0 0 0-5.2 5.7q-.8.6-.8 1l-.4.7-1.7 3c-1.1 2.2-1.4 2.6-2 2.6-.5 0-.5.1-.5 1.4q0 1.4-.7 2.6c-.3.7-1 2.4-1.4 3.8l-1 3a51 51 0 0 0-3.3 13.9 46 46 0 0 0 2.8 18.2l1.3 1.5a8 8 0 0 0 2.8 2.5l1.9 1.1c1.6 1.3 4.8.2 6.3-2.2q1.8-3 3-14.7a56 56 0 0 1 2.9-14.2q.1-1.1.6.2c.1.8.8 2.9 1.3 4l.4 1.2q0 .4.3.8l1 2 1.4 2.6.8 1.6q0 .4.6 1.5l.8 2.1q0 1 .8 1.2.6.3 1 1.1c.7 1.9 5.2 5.4 7.5 5.8 3.3.6 7-3.5 5.9-6.4q-.4-.9-.4-1.8c0-.4-.3-1.3-.6-1.9l-.9-2.5q-.2-1.2-.6-2a54 54 0 0 1-3.1-13.3l-1-5a69 69 0 0 1 2.7-30c0-.9.4-1.1 2.4-1.3l3.2-.5 4.1-.8a19 19 0 0 0 3.9-.9 31 31 0 0 1 9-1.9l1.4-.2 3.9-.8c1.5-.2 3.3-.6 4-.9l2.6-1 2.6-1q1-.7 1.6-.7l1.3-.4 1.5-.7a54 54 0 0 0 12.7-8.7l1.6-1.2c.4 0 3-2.2 5-4.3 1.8-1.8 2.2-2 2.2-.9M213 556c1 .7 2.7 2.4 2.7 2.7l-.8 1.9a44 44 0 0 0-2.7 6.4c-.5 2.2-1 4-1.3 4.4q-.4.6-.4 1.2 0 1.5-1.2-.5l-1-1.1q-.3 0-.3-.5t.4-.5.5-.5.8-.5q.7-.1.9-.8.4-1.4-.7-.6l-.8.3a64 64 0 0 1 2.3-11.3c.3-1.6.3-1.6 1.6-.7m16 13.3q1 .7 2 1 1.3.7.4 1.8l-.4.9-.6 1.6-.8 2.2q-.1.8-.5 1.7l-.6 2.8-.9 5.4c-.2.5-3.3-1.2-5.3-3-.6-.4-.6-.5-.2-1.3l.4-1 .6-1.5c.4-.7.9-2.4 1.2-3.8l.8-3.3.4-1.7q0-.7.5-1.4l.5-1q0-.9 2.4.6m14.9 8.8 1.6.8c1.1.3 1.2.3 1.2.7 0 .5-.7.5-1.1.1-.6-.5-1.6 0-1.8 1-.2 1.1.3 1.7.8.9.7-1 1.5-.7 1.5.4q0 .9.3.4.3-.3 1-.5 1-.5.5.8l-1.8 9.8c0 1.3 0 1.4-.6 1.3-1.4 0-3.3-.5-3.8-.9q-.6-.4-1.1-.4-1.2 0-.5-.9.4-.6.6-2l.6-3c.8-3 1-3.7 1.2-6.4l.4-2.7zm-32.4 15c2 1.7 2.1 2 1.3 2.1q-.7 0-1 .7l-.7.8q-.3.1-.4.8-.2.9.7 0 .5-.5.6-1 0-.3.8-.2t.9-.3q0-.5.9-.2c.9.3 4 2.3 4.4 2.8q.3.4 1 .5l1.8 1c1.9 1.5 2.3 1.8 3.3 2.4q2.2 1 1.3 1.4-.7.2 0 .5.9.7.9 0c0-.5.3-.5 1.9.4l1.7.7 1.3.6a39 39 0 0 0 8.7 2.9l1.6.6c1.1.3 1.1.3 1 1.9q0 2.5-.9 2.2c-.6-.3-3 .7-3.9 1.6-1 1-1 1.1-1.7 5.2-.8 4.8-.9 5.3-1.4 6.5-1 2.1-3.7 3.5-4.7 2.4a14 14 0 0 1-2.6-7.3c-1-8-1.1-8.5-4-10.6-1.9-1.5-4.3-.7-6.2 1.9-.7 1-.7 1-.7 6.4 0 6.5.4 8.6 2.2 11.7l.4 1q0 .4.5.9l1.5 1.7c1.2 1.7 4.4 5.4 5 5.9s.5 2.4-.1 3.9l-.9 2.4-.9 2.5-.6 1.2q-.5.9-1 0-.3-.5 0-.8.7-1-.4-.8c-.5.1-.7 0-1.4-1-.4-.7-1.2-1.6-1.6-2.1a53 53 0 0 1-7.6-15.8l-.5-2.3q-.5-1.4-.5-2.2l-.4-2.7c-.2-1-.5-3.5-.6-5.4l-.5-4.5a88 88 0 0 1-.7-18.8q-.1-3.2 2.2-1.4m27.8 49h-.3q-.3 0-.1-.4 0-.1.4 0zm0 6q-.3.3-.3-.3t.3-.3 0 .6m21.8 31.3c.5.8 2 2 2.9 2.6l1.1.8c.8.7 2.2 1.7 3.1 2.1l2.5 1q2.3.9 1.2 1.6c-.2.1-.4 1-.5 1.8q0 1.4-.6 2.2c-.6.7-1.2 3.4-1.7 7.2a56 56 0 0 0-1.9 13.1c0 .5-.8.6-1 .2l-1.5-1-2-1.1-1.4-.8c-.9-.2-1-.9-1.2-5.1q-.1-4.1-.6-6.2c-.4-1.7-.5-2.6-.4-4.3l.3-5.6a51 51 0 0 1 .6-6.8c-.4-1.8.3-3 1.1-1.7m27.8 13.1q.9.5 1.8.5t1.3.2l1.6.4c4.9.6 4.8.6 4.7 2.9 0 1.1-.3 2.4-.4 2.9a68 68 0 0 0-1.5 14.9c-.3 2.2.2 7.3.7 8.5q1.4 2.4-2.2.5a27 27 0 0 0-6.6-2.2 10 10 0 0 1-3.7-1.5c-2-1.3-2-1.3-2-3.7l.2-4 .3-3.3q.2-1.7.5-2.3a72 72 0 0 0 2.9-12.5q0-2.7 2.4-1.3m19.4 2.7 2.1.3c1.1 0 2.5.2 3.1.4 1.5.5 4.2 1.1 4.8 1.1l4.8 1.6c3.2 1 3 .8 2.4 4.2-1.2 6.2-1.3 6.9-3.6 15.3-.4 1.7-.5 2.8-.5 6.3 0 2.4-.1 4.4-.2 4.5l-2.2-.4-7.2-1.2c-1-.1-1-.1-1-4.9l.6-8.8c.8-9 .3-12.3-2.3-15.6l-.9-1.5-.5-1.2q-.3-.3.1-.3t.5.2m215.2 2 .4 2c.6 1.7-.3 4.5-2.4 7l-1.1 1.7q-.7 1.2-1-1c-.2-.8-.4-1.8-.6-2q-.3-.7-.3-1.5l-.4-2.4c-.5-2.1-.4-2.5 2-3.3l2.3-1q1.2-.5 1.1.6m-18.2 5.2c.6 1.8.9 18.2.4 18.3q-.3.1-1 1c-1.2 1.3-1.6.9-2-2.4-.2-2.1-.3-2.5-2-8.4-1.8-5.8-2-6.4-1.8-6.7.2-.5 2.8-1.7 3.6-1.7l1.1-.2q1.4-.5 1.7.1M339 703l1.7.4c.8 0 2.2.3 3 .6l3.8.8c2.4.3 4.3 1.1 4.1 1.7l-.7 5-.8 3.4c-1 3.3-1.1 13.9-.1 17.5.6 2 .5 2.1-3.1 1.6l-3.3-.4c-3.7-.2-5.3-.7-5.7-1.5a22 22 0 0 1 0-7.3c.3-.8.5-2.2.6-3.2q.1-1.7.5-2.9a26 26 0 0 0-.1-8.2q-.3-.9-.3-2.1t-.6-2.5q-1.3-3 .1-3.1.7 0 .9.2m145.1 5.4c.2.4.3 3 .4 5.7 0 2.8.2 7.2.4 9.8.4 7.2-.6 9.6-4.3 9.6a8 8 0 0 0-2.8.8c-3.3 1.3-3.1 1.8-3.2-8.7 0-8.2 0-8.4-.6-10.3q-.7-2-.6-3.7c.1-2.3.5-2.5 4.2-3l4.3-.6 1.7-.2q.3 0 .5.6m-117.2.4 2 .6c.8.2 3 .5 5.2.6 5 .3 5.4.4 5.5 1.6q0 .9-.3 1.5c-.6.9-1.2 2.9-1.4 4.5l-.7 3.9a48 48 0 0 0-.2 15.9c.2.8.2.8-6.9 0l-3.5-.2c-1 0-1 0-1.5-1-.8-1.7-.3-8.4 1-13.8q.3-1.8.4-6c0-2.4.2-4.5.3-4.7q0-.5-.6-1.6-.6-1-.5-1.3c.2-.3.1-.3 1.1 0m93.3 3-.5 2.3-.5 3.5a155 155 0 0 0 .1 14.3l.9 4.6c0 .9-1.4 1.8-3.1 2l-4.5.7c-5.1 1-5 1-4.7-4.3l.2-6.1c0-1.8.2-4.6.4-6.4.5-4.7.5-6.9-.2-8.2-.5-1.1-.5-2.1.1-1.9h1.8l7.3-1c2.1-.4 2.7-.3 2.7.5m-64 .6a7 7 0 0 0 3.3.1c1.9-.3 4-.4 4.8-.1.7.2.6.3-.2 2.6q-.4 1.4-.7 5.7c-.2 2.4-.5 4.9-.7 5.6q-.6 2 .1 10.5c.3 3 .1 2.6 1 2.8s.8 1-.1.8a43 43 0 0 0-8.2-.8c-3.6-.1-4.4-.2-4.5-.5-.3-.7.4-9.8.8-11.7.4-2 .7-6.6.8-11.4 0-4.4 0-4.4 3.5-3.6m38.5-.2c.6.2.3 3-.6 5.7l-.9 3.6-1.2 4.3c-.9 2.7-1.1 5.1-1 10 .2 5.5.8 5-6.5 4.9-7.7-.3-7.7-.3-7.5-1.5a232 232 0 0 0 0-22c-.7-4-1-3.7 3-3.6a72 72 0 0 0 14.3-1.6zm-162.7 17.4 3.2 1.5 2.3 1.3 1.4.7q.6.1 1.4.8c.3.3 1.3.7 2 .8l1.6.5c.4.3 3 1 4.6 1.3q2.5.4 5 1.5c.5.3 1.9.7 3 1 1 .3 2.4.8 3 1.2a70 70 0 0 0 12.5 6l3.7 1a67 67 0 0 0 10.5 2.3 226 226 0 0 1 14.6 2.4l12.3 2.5a51 51 0 0 0 7.1 1.4l2.6.5 2.7.5A62 62 0 0 0 381 758c4 0 8.6.3 10.2.5 3 .3 5.2.3 8.8 0 2.5-.2 2.7 0 2 2.3l-1.1 2.9a19 19 0 0 0-1.4 5.2l-.6 2.9a46 46 0 0 0 .9 22.2l.5 2.8.4 6.5c.1 7 .4 6.7-5 5.4-1-.3-3.6-.6-5.8-.8a75 75 0 0 1-14.1-2l-1.6-.2q-.6 0-1.3-.3l-3.3-.6q-2.4-.5-4.4-1.3-1.7-.8-2.3-.8l-1-.4q-.6-.4-2-.8-1.5-.4-2-.8t-1.5-.7-1.9-.6c-.7-.5-1.5-.7-4.9-2l-2.5-1.1-1.7-.6q-.5 0-1.1-.4l-3.1-1.3a12 12 0 0 1-3-1.3l-1.5-1c-1.7-.8-3.6-2-4.8-3-1.7-1.3-3.6-2.4-4-2.1l-.8.2c-.6.1-3.1 2.7-3.1 3.3q0 .4.3.8l1 1.5 1 1.7c.5.8.6 2 0 2q-.7 0 .3.9.6.4.8.2.3-.7.8.5.3.9 1.1 1.2.9.4.8 1 0 1.4.4.8.9-.6 1.1.3.3.6 1 1.2.8.7.9 1.1 0 .3.6.7.6.2.6.4 0 .4 2.9 2.1l1.5 1q.8.7 1.2.7.5 0 1.2.7t1.2.8q.6 0 1 .4 2.5 1.9 4.8 3l2 1 1.8.9c5.1 2.4 5.3 2.5 4.1 3.1-.7.4-2.9 3.9-2.9 4.7q0 .7-.7 2.2-.8 1.3-.8 1.9l-.4 1.6-.7 2.8c-.2.8-.8 2-1.3 2.7q-.8 1-.8 1.7 0 .4-.6.8l-.9 1q-.3.6-1 .8-.9 0-1.4.6l-1.4.7q-1 .3-1.3.7-.2.3-1.2.5-1 .1-2.2.8l-2.7 1-10.7 2.9-1.8.6c-.5 0-1.7.4-2.6.7l-2.4.9c-1.3.3-3 1-3.3 1.2-.5.5-5.8 2.3-7.3 2.5a116 116 0 0 1-12.1 1.8l-4.7.4c-3 0-4.5.2-5.6.6a92 92 0 0 1-22.7 1.4 58 58 0 0 0-8.2.3q-.6-.2.9-.6.3-.1.8-1t.8-1l2.2-1.4 3-1.6 1.8-1q.5-.4 1-.4.7.1.6-.7t.3-1c.8-.6.5-3-.4-4.5a9 9 0 0 0-6-3.6c-1.2-.1-4.2.4-4.4.7q0 .3-.6.5c-1.1.3-4.6 2-5 2.5-.3.4-5.8 3.1-6.3 3.1q-.5 0-2.8 2l-1.1.8a27 27 0 0 0-7 5.1q-3.8 3.5-5.5 2.6c-.5-.3-.4-1.8.1-2.5l.9-1.5c.3-.6 1.1-1.7 1.8-2.4l3-3.2q2.6-2.8 4.6-3.8l2.1-1.2a56 56 0 0 1 16.3-6.9q1.2 0 5-1.3l2.2-.4 2.9-.6 13.4-2.3 3.7-.8 3.9-1c.8-.1 2-.5 2.5-.7q3.5-1.3 6.7-1.5l3.3-.4 1.9-.2q4.6.2 1.7-6-.5-1-.5-1.3l-.5-1q-.5-.6-.5-1a6 6 0 0 0-1.3-2.6l-.8-1.5q-.6-1.2-1.6-2.5c-.6-.7-1.3-1.9-1.7-2.6l-1-1.9q-.5-.4-1-1.3l-4-6.3-1.3-2-1-1.6q0-.7-.6-.8-.3-.2-.4-.7 0-.4-.5-.7a27 27 0 0 1-3.9-5.7l-.8-1.4a17 17 0 0 1-2.1-4l-.6-1.4-1-2.1c0-.6-.6-2.2-1.1-3.5-1.4-3.6-2-6-2.3-10-.1-2-.3-3.9-.5-4.1l-.2-1.7a44 44 0 0 0-1-7.6l-.4-4.3-.5-4.2-.5-3.9a48 48 0 0 0-1.3-7.7c-.4-.5-.5-1.7-.1-1.7zm256 7.5q.5.8.6 1.3t.5 1.2q.5.7.5 1.4t.4 1l.3.6.6 1.3q1.5 2.6.8 3.5-.4.3 0 .9.5.9.6 0c0-.8 1-.3 2 1.3l1.5 2c1.4 2 4.5 5.5 7 7.9 1.4 1.4 1.6 1.6 1.3 2q-.4.6.3.5 1.2 0 .7.7c-.3.3-.1 1.4.2 1.2l.7.2q.5.5.9 0 .3-.4.9 0 1 .8.2 1.2-.3 0 0 .6.3.4.4.1.6-.6.7.4t.6.4c.6-1 2.7 1 2.5 2.4s.5 2 1.1 1c.5-.5 1.5-.5 1.5 0q0 .3.9.7l1.3.7a16 16 0 0 0 4.2 3l2.6 1.7c1 .6 2.4 1.4 3 1.9a4 4 0 0 0 1.7.8c.4 0 1.8.6 3.3 1.3a43 43 0 0 0 10 3.6l3.4 1a69 69 0 0 0 7.5 2c.8.4 2 .6 2.5.6q1 0 2.6.5l2.2.5q.8 0 2.2.5c.8.3 3 .7 4.6 1l6 1a163 163 0 0 0 11.7 1.7c3.3.5 5.2.7 11.1 1.3l7.9.8 6.1.3 6.5.4c5.7.5 6.4.5 12.4.8a86 86 0 0 1 12.8 1.2l3.7.5c.4.2 1.7.4 3 .7a81 81 0 0 1 12.5 2.9q.6-.1 2.4.7c1 .5 2.2 1 2.7 1l2.8 1 7.7 3c.6.4 1.6.8 2.1 1l1.6.7q.6.5 1.5.6l2.3.5c.7.2 1.9.5 2.5.5q1 .2 1.6.6.5.5 1.2.6l1.5.8 3 1.9 2.5 1.7q.3.4 1.2.8 1 .5 1 .8l.6.5c.6.4 3.1 3.2 3.6 4.2q.4.5-.1.7a21 21 0 0 0-4.5 2.4c-1.9 1.5-6.6 1-9.6-1a8 8 0 0 0-3.8-1.1c-2.6-.2-7-1-9-1.4a56 56 0 0 0-7.3-.5q-5.7-.1-8.8-.6c-7.7-1.2-10.9-1.4-21.6-1.3-5.2 0-7.5.2-8.4.4s-3 .4-8.2.4a248 248 0 0 0-31.5 2c-6.8.5-12.4 1-14 1.3a254 254 0 0 1-88.5-4l-5-1q-.1-.5.7-3.1c1.5-5 1.6-5.6 1.6-9.8a32 32 0 0 0-.7-6.9l-.7-2.1c-.5-1.2-.5-1.4-.2-1.8.4-.5.3-.6-.5-1.3-1-.8-1-.8-1.1-.3-.4.9-.5.8-6.6-3.5-2-1.4-3-1.6-5.7-.7-2 .6-2.1.8-2.3 1.7l-.8 1.6-.7 1.4q-.2.7-.7 1.3c-.7 1-2.2 6.6-2.8 10.2l-.9 4.5-1.5 7.7-.9 3.7-.9 3.9a62 62 0 0 0-3 12.8l-.6 2.9c0 .6-.7 2.8-1.4 4.8s-1.2 3.9-1.2 4.2c0 .6-.7 1.5-1 1.5q-.5.1-1.6 1.3c-1.9 2-2.5 2.3-5.8 3.6l-4.2 1.7-2.7 1.3-2.7 1.4a38 38 0 0 1-11 4.6q-.9.4-2.2.6-1.4.3-2 .8c-.7.5-3.1 1-5.9 1.5a31 31 0 0 0-11.3 4A44 44 0 0 1 430 877a27 27 0 0 1-10 2.5l-5.7.6c-3 .4-9.4.6-9.5.3l1.5-1.1q1.5-.9 2-1.5t.7-.5q.5 0 2-1l7.1-3.7 1.4-.8c.7 0 3.6-2.8 4.3-4.2 1-2 .2-4.6-1.8-5.6-.5-.3-1.4-.8-1.8-1.2q-1.5-1-5.7.5l-2.5.7q-1.3.3-2 .8l-.8.5c-.4 0-2.4 1-3 1.5-.2.2-1.4 1-2.6 1.6-1.1.6-2.4 1.5-2.8 1.9a40 40 0 0 1-5 4.2q-1.4.9-2.9 3.5l-1.6 3.1q-2 4-3.7 2.9-.4-.3 0-.4 1.5-.7 1-1.6c-.7-.7-2.5 0-2.3.9.2.7-.9 1-2.2.7l-2.3-.2q-3 0-4.5-1.4c-.8-.7-.8-.7 0-1.7l.6-1.3c0-1.7 5.5-7.5 8.3-8.7l1.4-.9.7-.4q.4 0 1.1-.7c.4-.3 1.4-1 2.1-1.2l2-1.2c1-.7 3.5-2.1 3.9-2.1l3.5-1.7a21 21 0 0 1 5.5-2.1q.9-.5 1.5-.5t1.4-.5l1.5-.6q.9-.2 1.1-.5t1-.5c.5-.1 2.4-1 4.2-1.8a47 47 0 0 1 6.7-3q1-.7 2.2-1.1 3.5-1.2 4-2.5.4-.7.6-.7c.3 0 .8-1.6.8-2.6q0-.7-.8-2.4l-.7-1.9-.9-1.6q-1.4-2-.5-2.8.5-.3.1-1.1-.3-.9-.6-.1c-.5.6-1.4.2-1.4-.5q0-.6-.7-1.4l-.8-1.1-.8-1.3q-.8-1-.9-1.4l-.4-1.5-.9-3.3c-.4-2-.8-4-1.6-7l-.8-3.7-1-5a41 41 0 0 1-1.4-9.6l-.6-6.5a57 57 0 0 1 2.4-16.6c0-.6 1.7-4 2-4.3q.4-.1 1-1.3c.2-.6 1.1-1.8 1.8-2.5l1.2-1.5.9-1.1 1.9-2.3c.9-1.1 1.3-1.4 2.2-1.6 1.4-.3 18.6 0 23.3.5 3.5.3 8.5 0 11.9-.7 1.8-.4 3.6-.7 8-1.2a31 31 0 0 0 6.8-1.4q1.3-.3 2-.7l2-1.1 4-1.8c2.5-1.3 5.5-2.3 7.2-2.5l2.1-.6q1-.5 2-.6 1-.2 2.1-.8 1-.6 2.1-.6 2 0 5.5-2.6l2-1.3 2.9-2c2.1-1.5 2-1.5 3.4-2.1l4-1.4c.8-.2 3.1-1.5 4.2-2.5 1-.8 1.4-.8 2.1.2"/><path d="M488.7 199.1q0 .7-.3.8t-.4.5q0 .9 1.2 0c.8-.7.7-1.8-.1-1.9q-.8-.2-.5.6m-1.6 3.2q0 .4.3.6.2 0 .2-.4t-.2-.5q-.3 0-.3.3m-10.7 21q0 .4.2.4t.3-.2l-.3-.4q-.2 0-.2.2m-16.9 33v.5q.4.3.4-.3 0-.8-.5-.2m-20.7 42.6q-.1 1.4.7 1c.8-.4.2-1.4-.2-1.6q-.3 0-.5.6m61.6-98.6q-.7.8.2 1c.3 0 .9-.8.9-1.3q-.2-.6-1.1.3m-3.1 5.2v1q.3.3.5-1 .1-1.5-.5 0m5.1 1.5c-4.4 1.3-7.5 10-4.7 13.1l.6 1q.2.6.4.6.4 0 1.1.9c2 2 5.9 2.6 8.7 1.3 2-.9 3.8-2.3 4.1-3.4l.8-1.3q.3-.5.4-1.7 0-1.1.4-1.7c.7-1.3-.7-5-2.6-6.9s-6-2.7-9.2-1.8m-4.4.6q-.2.1-.3.7.1 1.1.6-.3v-.6zm41.5 10.7q.5.4.6.3.3-.6-.6-.7-.6-.1 0 .4m2.7 1.6 1.3.7q.7.3.9.2c.1-.2-1.9-1.2-2.4-1.1q-.4 0 .2.2m-29.6 2.2q-.4.8.2.8c.5 0 .7-.7.3-1q-.3-.3-.5.1m39.4 8.1c.1.6.7.7.7 0q0-.4-.4-.5-.3 0-.3.5m-70.3 5.3-.2.8q.2.3.4-.4.5-1.5-.2-.4m59.5 20.8q0 .4.3.4t.2-.2l-.2-.4q-.3 0-.3.2m-71.4 2.6v.4-1zm-2.1 2.5q.1 1 1 .7 1-.8-.2-.9zm29.7 1.9q-.5 2.1 0 2c.6 0 1.1-1.7.8-2.3q-.6-1-.8.3m-30.5 1.6q0 1 .6-.2.3-.4-.1-.4-.3 0-.5.6m65.4 1.8.8.4c.2-.2-.9-1-1.2-1.1q-.2 0 .4.7m4.1-.5q-.3.3-.1.5.4.2.4-.5-.2-.5-.3 0m-2.2.8q0 .2.3.2t.2.7q0 1.5.9 1.3c.6-.3.8-1.4.3-1.9s-1.7-.6-1.7-.3m-86.1 69.5q.1.3.8.2.9 0 .2-.2-1.2-.5-1 0m30.6 15.8.4.2q.3 0 .2-.2t-.4-.3q-.2 0-.2.3m1.7.7q.2.2.8.3.9.3 0-.2-1.2-.6-.8-.1"/><path d="M482 353.3q-.5.2 0 .2t1 .2q.6 0 .5-.2c-.2-.4-1-.5-1.5-.2m13.3-70.5.3.2.4-.2q0-.3-.4-.3-.3 0-.4.3m-1.9 1.1q0 2.1 1 2.1 1-.2.2-1.3l-.6-1.3q-.6-1.5-.7.5m31.2-.7q-.5.9 1 1.5l1.8 1.3q1.4 1.4 1.3.2 0-.4-.3-.5c-.4 0-2.7-2-2.7-2.4s-1-.5-1.1-.1m-19 19.8v.8q.4.3.4-.5 0-1.4-.4-.3m33.6 3.7q0 1.4.9 1.4.5-.2.2-.8c-.3-1.3-1.1-1.8-1.1-.7m1.4 3.8.1.7.2-.2q.3-.9-.3-.9zm-52.1 6.9q0 .5.4.6.3.2.3-.4-.1-.5-.5-.7-.3-.1-.2.5m6.9 10.4c-.2.3.3 1.3.7 1.3l.4-.2c0-.4-1-1.4-1.1-1.2m3.6 5.7q0 .4.2.4t.3-.2l-.3-.4q-.2 0-.2.2m23.3 5.9q-.6.4.2 0 1-.5.6-.5zm-2.9 1.2q-.9.5 0 .4l.9-.4q.8-.5 0-.4zm-221.9-24.1c.1.3 1.5 1 2.5 1.3.9.2 1.3-.7.6-1.3-.6-.4-3.2-.4-3.1 0m-6.9 7.5v1.1q.3.6.5-.2l-.1-1.1q-.2-.6-.4.2m7.8 44.7c-.2.6.5 1.7 1 1.7s.3-1-.3-1.7q-.7-.8-.7 0M412 320.4c0 .4 1 1 1.4.8.8-.4.4-1.2-.5-1.2q-.9 0-.9.4m-6.7 1.6c-.4 0-.4.7 0 .7q.8-.1.6-.7zm21.5 48.4q-.9 1.4 0 .3l.7-1q0-.6-.7.7m-110.1-47.7q-.1.3.1.2c.4 0 .6-.6.3-.6q-.3 0-.5.3m57.2 56.4q.1.4.4.4.3.1.3-.2-.2-.4-.5-.4t-.2.2M543 347.4q.2 1 .5 1 .4 0 .5-1t-.5-.9q-.6-.2-.4 1m-2 1.3c-.3.4.1 1.4.5 1.4q.6-.1.2-1.3-.2-.6-.7-.1m-92.4 5.9q-.3.4.9 1 1.4.7.3-.5-1-1-1.2-.5m9.7 6.5v.4c.4.2 1.1-.1 1-.4q-.5-.5-1 0m63.9-4.4.2.2.4-.2q0-.3-.2-.3-.5 0-.5.3m32.8 22.3q-.2.9.6.1.8-.5 0-.4-.3 0-.5.3m-69.6 1.5q-.4.5.4.6.3 0 .4-.5-.1-.8-.8-.1m45.7 7.8q-.6.5.4.6 1.3-.1 1.4-.5c0-.3-1.6-.3-1.8 0m-50.8 14.7q-.8.6 0 .4.3-.1.5-.5.2-.7-.5 0m-125.5 1.4q-2.4 0 .5.3 2.6.2 2-.2-.4-.3-2.5-.1m121.1 3q-.4 1 .5.2.3-.5 0-.6t-.5.4"/><path d="M475.3 408.6q-.3.3 0 .5.1.1.4-.2.3-1-.4-.3m-1.3 2.8q-.2.5-.6.6-.8.2-.3 1.2c.4.5 1.4-.8 1.4-1.9q0-1-.4 0m20.9 40.5c.2.4.8.5.8.1q0-.4-.5-.4-.3 0-.2.3m.7 1q0 .6 2.6 2.2c.9.5.8.5-.6-1q-2.2-2.2-2-1.2m76.2 6.8q0 .3.3.4l.2-.4-.2-.4q-.3 0-.3.4m-297.9 1q-.3 1.5.1 1.6.3 0 .3-1 0-2-.4-.7m195.9 1.3q0 .4.5.6.6.5.4-.2c0-.6-.9-1-.9-.4m97.1 7.7q-.2 1 .4.9c.3-.2.3-1 0-1.3q-.2 0-.4.4m-.8 2.1q0 .3.2.4l.4-.4q0-.3-.3-.4-.3 0-.4.4m-13.8 15.7q-.1.1.5.2h.6c0-.3-1-.5-1.1-.2m-28.5 9.2q.1.2.8.3t.3-.3c-.5-.3-1.3-.3-1.1 0m-261.2 12.8c-.4.9-.6 2.2-.5 2.2.3 0 .9-1.9.7-2.3q0-.3-.2 0m240.3 2.6.5.2.6-.2q.1-.3-.5-.3t-.6.3m-219.4 4.8q-.4.7-.3 1.9-.1 1.8.4-.4c.4-1.7.3-2.5-.1-1.5m-64.1 13.5q0 .4.3.5t.2-.2l-.2-.5q-.3-.1-.3.2m.2 3.6c-.3.5-.2 1.3 0 1.3q.3 0 .3-.9 0-1.4-.4-.5m33.6 14.6v1.3q.3-.1.3-.7 0-1.2-.3-.6m-20.8 1.8c-.2.1.4.7.8.7q.3 0 .3-.2c0-.2-1-.8-1.1-.6M250 561c.2.4.9.5.9 0q0-.3-.5-.4t-.3.3m16.4 106.3q.2.8 1.8 2.1 1.4 1.2.5 0c-.3-.3-.8-1-1.2-1.2l-.6-.8q0-.3-.2-.3t-.3.2m5.8 5.1.7.2q.5 0 0-.2-.3-.3-.7-.3-.6 0 0 .3m19.2 5.1q.6.3 1.3.3t-.4-.3q-2-.7-.9 0m-64.7-107.7.5.6q.7.6.6-.1t-.6-.7-.5.2m-.4 2.6q-.2.6.4.7.2 0 .2-.5-.2-.9-.6-.2m17.8 10.2c-1 1.1-1.1 2.7-.1 1.7q.4-.5.5-.1l.1-.2c0-.8.4-.2.5.9.1 1.3.2 1.3.7 1.1q.7-.5-.2-2.6-.7-1.7-1.5-.8m-2 7.5q-.8.8 0 1.5.6.5.5-1.2.1-1.1-.5-.4m-31.9 3.6q-.5.1 0 .7c.3.7 1 .7 1 0q-.2-1-1-.7m5 30.9c0 .5.4 1 .4.5q0-.4-.2-.5t-.2 0m-.9 8.9q-.2 1.1.4 1.2c.3 0 .3-1.4 0-1.6q-.3-.1-.4.4m8.7 13.8q-.3.8.6.9.3 0 .3-.6c-.1-.6-.7-.9-.9-.3m38.2 34.5q0 .3.3.4c.4 0 .3-.6 0-.7q-.4 0-.3.3m.7 1.6q-.1.6.6.2 1-.6-.1-.7-.5 0-.5.5m7 4.6c-.3.6-.2 3.4.1 3.3.5-.2 1-1.5.8-2.2q-.1-.7.2-.8l.4-.4c0-.3-1.2-.3-1.4.1m-6.3 20.2q.8 1 1.1.3 0-.2-.5-.5-1.4-.7-.6.3m30.8 12.1q-.6.4 0 .3 1-.1.7-.6l-.7.2M520.5 703q0 .6-.2 1.1c-.2.8.4.4.8-.5q.4-1 0-.9-.3 0-.4-.3t-.2.5m-38.2 9.1q0 .8.3.2v-.7q-.2-.2-.3.5m-1.1 18.3q-.7.4.4.5 1.3.3 1-.5-.5-.6-1.4 0m-23.7-15.7q0 .6.5.6.3-.2.4-.6 0-.4-.4-.5-.6-.2-.5.5m-63.4-.1.1.5c.3.4 1.1-.2.9-.5q-.5-.5-1 0m-84.5 33 .6.3q.6 0 0-.3-.7-.4-.6 0m-26.9 36.7q-.4.4.2.5.3 0 .4-.2-.1-.5-.6-.3m48.3 18.6q-.6.3-.1.8.8.8.9-.5 0-1-.8-.3m1.9 1.8q-.6.7-.1 1 .9 1 1-.5 0-1.6-1-.5m3.1 2.4q-.6.4 0 .7.4.4.5 0 .3-1.1-.5-.6m-37.8.9q-.3 1 .5 1t0-.9q-.3-.6-.5 0m55.4 9.9q-.2.8-.1 1c.3.3 1-.4 1-1q-.1-1.3-.9 0M256 837q-.5.3 0 .5c.7.5 1.5.2 1-.4q-.4-.6-1-.1m87.3.2q-.3.3-.1.4l.4-.1q.3-.6-.3-.3m-90.3.8q-.9.6 0 .5c.7 0 1.5-.4 1.5-.7 0-.5-1-.3-1.5.2m-2 1.3q0 .4.3.5l.4-.5q.5-.6-.2-.5-.5 0-.5.5m-21 13.9c-.3.1-.4 1 0 1 .3 0 1-.6 1-1q0-.4-1 0m294-112.9.4.2.4-.2q0-.3-.4-.3-.3 0-.4.3m3.5 1q.5.8.5.1 0-.3-.4-.5t-.1.4m8.5 13.4.5.6.5.2-.5-.6q-.5-.5-.5-.2m2.2 2.2c-.2.2.3 1.1.6 1.1l.2-.4c0-.4-.6-.9-.8-.7m1.7 2.4c.2.5 1 .6.8.1l-.5-.4q-.5 0-.3.3m2 1.5q-.1.2.2.4.8.2.5-.4t-.7 0m.9 1 .4.2.2-.2q-.2-.3-.4-.3t-.2.3m12.7 10.9c0 .4 1 1.3 1.5 1.3s.3-.9-.1-1.3c-.5-.6-1.4-.6-1.4 0M524 796l.4.9q.5.7.2 0l-.4-.9q-.2-.4-.2 0m204 17.6c.2.3 1 .8 1.2.6s-.4-1-.9-1q-.3 0-.2.3m9.1 5.6q-.1.4.2.4t.4-.4-.3-.4zM487.5 851q-.9.6 0 .7c.5 0 1.1-.5.8-.8q-.2-.3-.8.1m-3 2.4q0 .4-.6.4-1 .5 0 .7c.4 0 1-1 .8-1.2zm-66.9 1.4q-.3.7.7.5.4-.3.3-.6-.5-.4-1 0m-13.8 6.1.3.2.4-.2q0-.3-.4-.3-.3 0-.4.3m43.2-727.3q0 .2.6.3.4 0 0-.3-.8-.5-.6 0m33.5 11.8q-.2.2.3.2 1 0 .2-.3zm-5.6.3q-.4.4-.1.4l.6-.4v-.3q-.2 0-.5.3m-40 1q0 .4.5.4l.6-.4-.6-.3q-.6 0-.6.3m37.8.4q-1.5 1.1.1.6c.4-.1 1.3-1.3 1-1.3zm-3.4 1.1q-.5 1 .4 1.1.9 0 1-.9c0-.4-1-.6-1.4-.2M500 153q.2.8.8 1 .5-.2-.3-1-.5-.3-.5 0m-45.1 8.8.5.2.4-.2q0-.3-.6-.3-.4 0-.3.3m53.9 1.2q0 .2.4.5.6.5 0-.2-.3-.9-.4-.3m-51.4.7q-.1.4.1.6c.3.4 1.2-.4.9-.8q-.6-.6-1 .2m2.4 1.7c-.4.2-.4.8 0 1q.9-.1 1-.8 0-.6-1-.2m28 .6c-.5.1-.3.7.3.9q1.3.3.7-.6-.3-.8-1-.4M284.6 168q-.6.3-1 1t-.6.7c-.6 0-2.8 2.2-3.3 3.2q-.4.9-.8 1.2-.4.1-.4.5 0 .6-.9 1.9c-2.2 3.5-3 12.7-1.5 15.2.7 1 3.1 3 3.8 3l2.3.6a9 9 0 0 0 8.4-2.5l2.3-2.3 1.4-.9 1-.6 1.3-.8c1.7-.7 3.5-2.3 3.8-3.4 1.4-4 1.3-4.9-.9-8.6-3.5-5.8-10.9-9.8-15-8.2m102.8 8q-.3.2-2.2.3c-2.6.2-4.2.7-6 1.8l-1.6.9c-.7 0-3.4 3.7-3.6 4.8a31 31 0 0 0 1.3 16.2c.4 1.1 3.3 4 4 4l1.7.5q2.7 1.1 4.8-.2c1.4-1 5.3-4.8 5.3-5.1l2.1-1.7c2.3-1.7 2.7-2.3 2.7-4.2 0-.9 0-1.2.8-1.9 2-1.8 2.2-2 2.8-3q.7-1.1 1.5-1.8c1.5-1.1 1.3-3.5-.6-5.8q-.8-1-1.2-1l-1.1-.7-1.7-.7q-.9-.2-1.6-.9c-.7-.6-1.1-.8-3.4-1zm102.6 3.1q-.7.5 0 .4t.6-.4q.2-.6-.6 0m-2.1.9-.8.5c0 .3 1.3 0 1.6-.3q.5-.5-.8-.1m27 5.2q.1.3.7.4.6 0 .5-.3l-.7-.4q-.6 0-.5.3m-34.5.7q-.2 0-.3.4 0 .3-.3.5-.4.1-.6.5 0 .4.9-.5 1.8-1.7.3-1m46.7 7.2q0 .3.4.4c.4 0 .4-.6-.1-.7q-.3 0-.3.3M222.3 195v.9c-.2.4.2 1.6.5 1.6l.2.6c0 .9 1.1 1.9 2.1 1.9q.8 0 1.9.5l1.4.5 1.5.6 1.5.6.7.5q.5.5 1.3.5t1.7.7a62 62 0 0 0 12.7 6.2c1.9 1 3.8 1.8 4.6 2l1.4.7 1.2.4 1 .3c.5.2 2.1.8 5.9 1.9 2.8.8 5.6.3 6-1q0-.7.4-.7.5-.2-.2-2.3c-.3-1-.6-1.3-2.3-2.3a18 18 0 0 0-5.4-2.9l-3-1.2a28 28 0 0 0-4.5-2l-4.6-1.9-6.7-2.7-1.7-.7-3.1-.9a41 41 0 0 0-10.5-2c-3.6-.4-4-.4-4 .2m57.9 2q-.6.4-.1.7c.4.4 1.8.2 2-.3.5-.6-1.2-.9-2-.3m182.1 18.6q-.3 1 .3 0 .3-.4 0-.5t-.3.4m-207 .6c-.3.2 0 .8.5.8q.3 0 .3-.4-.2-.8-.8-.5m-18.4.6c-1.7.3-5.4.4-16.1.4-11.6.1-14 .2-14.6.5-.9.4-2.2.6-7.6 1q-2.2.2-3.1.8l-2 .7c-2.3.4-1.2 2.9 1.1 2.9q.8 0 1.3.4c1 .9 11.7.7 18.4-.3a222 222 0 0 1 37.5 1.2c4.4 1 5.5.3 5.2-3.2-.2-1.6-.2-1.9-.7-1.9q-.4 0-1-.7c-.6-.8-1.1-1-2.4-1.1l-2.2-.2-10.3-.8c-.8 0-2.4.1-3.5.3m224.6 0-.1.5q0 .5.2 0 .4-1 0-.5m-96.5.6a85 85 0 0 0-10 .8 28 28 0 0 0-8.9 1.7c-.7 0-2.9 1-3.5 1.7-1 1.3-1 1.4 1 3.2l.5.7c.5.8 6 .5 11.5-.6l8.9-1.3q1.5-.1 2.5-.5c.5-.3 1.8-.6 3-.7l4.1-.7 4.5-.7 1.4-.3c1.1-.2 2.8-.2 3 0 0 .3 1.3.3 1.8 0l.2.1q0 .3.5.1.5 0 .5.2t.9.2q1 .1.9-.5 0-.4.1-.3c.3.4 1.7.7 2.7.6q.5 0 .6.3t.4.1a45 45 0 0 1 12 1.4l3.9.4c1 .1 2.1.4 2.4.5q.6.3 1.3.3a66 66 0 0 0 13 2.5l5.2.9 2-.7.9-.3q1.2 0 1-.6t-1-1.4l-.8-1c0-.1-1-.5-2-.7l-6.1-1.5a75 75 0 0 0-15.5-2.7c-3.4-.5-20-1.3-22.3-1h-1.9q-.4 0-.6.3-.5.4-2.6-.2a92 92 0 0 0-15.5-.3m198.3.9q0 .2.4.6.4.5 0-.3t-.5-.3M245.7 230c-1.7.6-3 1.2-5 2.2l-10 5q-.3 0-.8.6c-.2.3-1.4 1.1-2.7 1.8l-3.1 1.8-2 1.2-2.5 1.5c-.6.3-1.9 1-2.7 1.6l-2.9 1.6-1.7 1.2-1.9 1.4c-.9.4-2 1.2-2.3 1.6l-1.6 1q-.6.3-.7.7t-.3.2-.4.5q0 .6-.3.5c-.4-.2-.5 1-.1 1.5.6.8 3.5.8 5.5-.1l10.6-4.5q1-.3 1.7-.8l2.8-1.4 3.5-1.7 3-1.4 2.3-1q2.3-1.6 4.2-1.9c.7 0 1.9-.3 2.6-.6a53 53 0 0 1 6.4-1.9q.7-.3 1.4-.3l1.7-.4c.6-.2 2.4-.4 4.1-.5 3.8-.2 5-.6 5.6-2.1.8-1.6.7-3.5-.2-4.8-1.7-2.6-9.8-4-14.2-2.5m108.1-.2c-.1.1-2 .2-4.3.2l-4.3.3c-.7.4-1.2 2.8-.6 3.8l.4.9q.4.4 1.9.8 1.7.3 2.6 1l1.7.4 2.5.4 7 1.3 6.3 1 3.6.4c4 .5 4.5.5 7.3 1l4.1.7 4.4.7 5.5 1a75 75 0 0 1 22.8 6.1l1.4.6c.3.2 1.5.7 2.7 1l2.7 1.2 1.5.5q.9.2 1.3.6.4.5 1.5.5 1 0 1.1.2c.3.2 1.1-.4 1.1-.8q0-.3.3-.4.4 0 1-.7l.9-.8c1 0-.6-2.7-1.8-3.1l-1.6-.9a5 5 0 0 0-2.1-.8l-1.3-.4c-.4-.3-3.5-1.5-4-1.5l-1.1-.4q-.7-.3-.9-.2a40 40 0 0 1-6.4-1.8l-11.7-3.6a179 179 0 0 0-14.6-4.8l-3.7-.9-3-.7-2.3-.6-3.5-.6-5-.8-5.3-.5-5.7-.3zm210.5 10.5q-.3.3-.3 1 0 .9.2 0 0-.7.4-1 .4-.6-.3 0m-308.5 2.1c-4.3 2.2-5 2.7-8 5.4a18 18 0 0 1-3.8 3 14 14 0 0 1-3.3 3q-.7.3-1 1c-.1.3-1.2 1.7-2.5 3A92 92 0 0 0 228 269a13 13 0 0 0-2.4 3.2l-.7 1-1.2 2.1-1.1 1.9c-.5.6-.7 3.4-.2 3.1q.2 0 .2.2c0 .9 3 1.4 3.3.6q.2-.3.5-.4.8-.2 1.5-1.7l1.2-1.7q1-1 1-1.3l1.2-1.8 6.5-8.5a35 35 0 0 1 10-9.3l2.1-1.4a27 27 0 0 0 4.3-2.6q1-.9 1.6-1l1.8-1 2.7-1.7c1.9-1.2 2-1.8 1.1-4.2-.8-2-1-2.3-2.4-2.7s-1.3-.4-3.1.6m58.9 1.8c.1.6.9 1 1.3.6q.3-.4-.2-.7-1-.7-1.1 0m247.6 1v.4q.3 0 .6-.4.4-.4 0-.3-.5 0-.6.3m-210.7 1.3q-.4 0-.4.3-.1.3-1.1.5-2.2.5-1.8 1.8c.3.8 0 .8 4.1 2l2.8 1.1q.9.6 1.6.8l1.9.7q1.1.6 2.5 1.1t1.9 1l1.6.5 5.9 2.3 3 1.2c2 .7 5 1.5 5.7 1.5q.6 0 .9.7.4.5.7.6c.8 0 3.9 1.1 4.6 1.6a62 62 0 0 0 7.3 4.3q.3.3 1.1.5l1.5.7 1.6 1.2 2 1.3c1.8 1 3.5 1.7 3.7 1.3q.2-.2.2 0l.5-.2q.4-.4.6-.3c.3.4.8-1.2.5-1.7q-.3-.4-.3-.8c0-.5-2-2.4-2.4-2.4q-.3 0-.4-.3 0-.2-.2 0-.3 0-.5-.4-.4-.6-1.6-1.5c-4.4-3.3-4.6-3.5-6.8-4.7l-1.8-1.3-1-.6-1.2-.5-1.4-.8-1.8-1q-1.1-.6-2.5-1l-3.3-1.4c-2.3-1-4-1.6-7.9-2.6-3.2-.9-8-2.3-9.2-2.8-3.5-1.5-9.5-3-10.6-2.7"/><path d="m402.8 247.6.4.2h.6q0-.3-.6-.3zm42.4 2.2v.6q.4.3.3-.6-.2-.6-.3 0M283 273.4l.4.3q.2-.5-.4-.7-.3 0 0 .4m2 2q-.6.5.5 1.4 1 .8.5-.2-.7-1.5-1-1.2m3 2.7q-.2.4.3 1c.5.7.5.7.9.1q.3-.6-.1-1-.8-.9-1.2-.1m2.1 1.9c-.5.6-.5.6 0 1q1.3.8 1.2-.6t-1.2-.4m138.9 4.1-.3.8.3-.2q.4-.4.3-.7-.1-.4-.3.1m-114.8 4.7q-.3.7.4 0 .3-.3 0-.3zm-20.3 5.4q-.5.2 0 1 1 1 1.6.3c.5-.8-1-2-1.6-1.3m1.7 2c0 .4.7.8 1 .7.5-.3.3-.9-.4-.9zm263 15.6q-.1.4.8.3.6-.1.7.1t.5.3q1 0-.2-.8-1.6-.9-1.8 0M269 335l.3.6q.3.7.2 0l-.2-.7zm305.5 2.9c.6 2.3 1.3 4.6 1.5 4.6.4 0 .3-.4-.4-2l-.6-2q0-.7-.4-1.1-.4-.8 0 .5m2.6 7.9c-.1.3.3 1.4.6 1.4v-.8q-.2-1.4-.6-.6m1 2.1q0 .3.4.4.8 0-.1-.6-.5-.3-.4.2m-310.6 45.9q-.3.5-.1.6c.2.2.7-.3.6-.7q-.1-.2-.5.1m-20.7 32.8q-.4.3-.1.4c.3 0 .7-.5.5-.6q-.1-.1-.5.2m-1.7 2.1q-.5 1 0 1c.3 0 .6-1.2.4-1.4zm334.3 59.9c-.3.3-.4 1.4-.1 1.4l.6-.6c.4-.8 0-1.4-.5-.9m-21 18.3q-.7.8.3.6.5 0 .5-.4-.1-.8-.8-.2m-2.2 1.2c-.5.2-1 .8-.7.8s1.4-.7 1.4-.9q.2-.3-.7.1m-8.3 4q0 .4.8 0 .7-.2-.2-.2-.5 0-.6.2M204 651.3l.6.5q.7.5 0-.3t-.6-.3m11.1 11.6q.5.4.8.4.4.1-.6-.4t-.2 0m29.9 47.5q.3.6.5.6c0-.2-.6-1.2-.8-1.2zm17.3 73.6q0 .8.2.9t.3-1q0-.7-.3-.8-.2 0-.2.9m488.1 27.4q-.3.7.4.3.3-.3 0-.5-.4 0-.4.2M233 827q-.8.1-.2.6.9.1 1-.5t-.8-.2m-2.8 1.2q-.8.4.2.5 1.4.3 1.2-.5-.4-.7-1.5 0m293.8 9.2c-.4.6.9 1 1.6.5q.4-.3 0-.5c-.5-.4-1.4-.4-1.6 0m122.4 3.7q0 .2.5.3t.5-.3q-.1-.3-.5-.2t-.5.2m-146.8 31c-.5.3-.7 1-.3 1q.4 0 1-.6.8-1.2-.7-.4m-1.9 1.5q-.3.6.5.3.3 0 .3-.3-.4-.4-.8 0m-13.7 7.4q-.7.3 0 .4l1-.4q.7-.5 0-.4z"/></svg>